<svg xmlns="http://www.w3.org/2000/svg" xmlns:xlink="http://www.w3.org/1999/xlink" width="250" zoomAndPan="magnify" viewBox="0 0 187.5 187.499992" height="250" preserveAspectRatio="xMidYMid meet" version="1.0"><defs><filter x="0%" y="0%" width="100%" height="100%" id="66826869ea"><feColorMatrix values="0 0 0 0 1 0 0 0 0 1 0 0 0 0 1 0 0 0 1 0" color-interpolation-filters="sRGB"/></filter><mask id="89b6949d3b"><g filter="url(#66826869ea)"><rect x="-18.75" width="225" fill="#000000" y="-18.749999" height="224.99999" fill-opacity="0.2"/></g></mask><clipPath id="24017c53a4"><path d="M 1 1.359375 L 184 1.359375 L 184 150.960938 L 1 150.960938 Z M 1 1.359375 " clip-rule="nonzero"/></clipPath><clipPath id="692d3a1b4a"><rect x="0" width="185" y="0" height="152"/></clipPath><clipPath id="780ad2e6cf"><path d="M 26.480469 5 L 160.375 5 L 160.375 186 L 26.480469 186 Z M 26.480469 5 " clip-rule="nonzero"/></clipPath></defs><g mask="url(#89b6949d3b)"><g transform="matrix(1, 0, 0, 1, 1, 17)"><g clip-path="url(#692d3a1b4a)"><g clip-path="url(#24017c53a4)"><path fill="#3b7bbe" d="M 54.054688 1.46875 C 58.808594 1.359375 66.925781 3.554688 74.785156 6.882812 C 76.46875 7.574219 78.148438 8.234375 79.757812 9.039062 C 86.449219 12.4375 93.359375 12.402344 100.417969 10.539062 C 104.253906 9.511719 107.984375 8.085938 111.859375 7.246094 C 116.46875 6.257812 121.074219 5.96875 125.679688 7.320312 C 132.261719 9.292969 137.308594 13.390625 140.925781 19.09375 C 146.996094 28.5625 149.042969 38.910156 147.835938 50.058594 C 147.179688 55.910156 145.972656 61.652344 145.425781 67.5 C 144.730469 74.996094 147.324219 80.992188 152.917969 85.890625 C 157.304688 89.695312 162.207031 92.800781 166.886719 96.203125 C 171.089844 99.273438 175.113281 102.527344 178.183594 106.804688 C 184.472656 115.617188 185.898438 124.976562 180.707031 134.8125 C 178.074219 139.820312 173.832031 143.183594 168.75 145.488281 C 162.5 148.339844 155.878906 149.144531 149.042969 148.851562 C 135.039062 148.265625 122.71875 143.148438 111.164062 135.578125 C 108.128906 133.605469 105.023438 131.703125 101.734375 130.167969 C 92.117188 125.632812 82.828125 126.402344 73.871094 131.957031 C 69.8125 134.480469 66.265625 137.625 62.613281 140.660156 C 58.808594 143.839844 54.933594 146.839844 50.398438 148.851562 C 46.597656 150.53125 42.648438 151.300781 38.554688 150.386719 C 33.253906 149.253906 29.414062 146.109375 26.925781 141.28125 C 23.855469 135.285156 23.378906 128.886719 24.148438 122.34375 C 24.878906 115.945312 26.78125 109.839844 28.863281 103.804688 C 30.730469 98.433594 32.628906 93.019531 33.472656 87.355469 C 33.984375 83.988281 34.054688 80.625 33.542969 77.261719 C 32.703125 71.816406 29.851562 67.464844 25.574219 64.0625 C 22.796875 61.832031 19.796875 60.003906 16.761719 58.105469 C 13.910156 56.3125 11.097656 54.449219 8.609375 52.144531 C 0.929688 44.976562 -0.898438 36.386719 3.34375 26.734375 C 7.257812 17.847656 13.984375 11.742188 22.648438 7.683594 C 31.351562 3.589844 40.601562 1.617188 54.054688 1.46875 Z M 54.054688 1.46875 " fill-opacity="1" fill-rule="nonzero"/></g></g></g></g><g clip-path="url(#780ad2e6cf)"><path fill="#ee3e95" d="M 26.472656 7.847656 L 26.472656 141.605469 C 26.472656 147.988281 31.683594 153.199219 38.066406 153.199219 L 83.277344 153.199219 C 83.480469 153.199219 83.644531 153.035156 83.644531 152.832031 L 83.644531 137.722656 C 83.644531 137.550781 83.535156 137.410156 83.371094 137.367188 C 79.976562 136.488281 77.148438 134.289062 75.390625 131.160156 L 72.035156 125.199219 C 71.96875 125.078125 71.851562 125.011719 71.714844 125.011719 L 59.515625 125.011719 C 55.566406 125.011719 52.082031 123.210938 49.78125 119.984375 C 43.199219 110.75 41.660156 100.097656 42.199219 89.132812 C 42.285156 87.394531 43.40625 86.277344 44.957031 86.277344 L 142.039062 86.277344 L 142.039062 86.285156 C 143.503906 86.285156 144.726562 87.441406 144.789062 88.917969 C 145.277344 100.050781 143.953125 110.535156 137.214844 119.988281 C 134.914062 123.210938 131.429688 125.011719 127.480469 125.011719 L 115.285156 125.011719 C 115.148438 125.011719 115.03125 125.078125 114.960938 125.199219 L 111.609375 131.160156 C 109.847656 134.289062 107.019531 136.488281 103.628906 137.367188 C 103.460938 137.410156 103.351562 137.550781 103.351562 137.722656 L 103.351562 152.832031 C 103.351562 153.035156 103.515625 153.203125 103.71875 153.203125 L 148.929688 153.203125 C 155.3125 153.203125 160.527344 147.988281 160.527344 141.605469 L 160.527344 7.851562 C 160.527344 6.324219 159.289062 5.089844 157.765625 5.089844 C 156.238281 5.089844 155.003906 6.324219 155.003906 7.851562 L 155.003906 14.761719 C 155.003906 14.964844 154.835938 15.128906 154.632812 15.128906 L 144.828125 15.128906 C 144.625 15.128906 144.460938 14.964844 144.460938 14.761719 L 144.460938 7.847656 C 144.460938 6.324219 143.222656 5.085938 141.699219 5.085938 C 140.171875 5.085938 138.9375 6.324219 138.9375 7.847656 L 138.9375 14.761719 C 138.9375 14.964844 138.769531 15.128906 138.566406 15.128906 L 128.761719 15.128906 C 128.558594 15.128906 128.394531 14.964844 128.394531 14.761719 L 128.394531 7.847656 C 128.394531 6.324219 127.15625 5.085938 125.632812 5.085938 C 124.105469 5.085938 122.871094 6.324219 122.871094 7.847656 L 122.871094 14.761719 C 122.871094 14.964844 122.703125 15.128906 122.5 15.128906 L 112.695312 15.128906 C 112.492188 15.128906 112.324219 14.964844 112.324219 14.761719 L 112.324219 7.847656 C 112.324219 6.324219 111.089844 5.085938 109.5625 5.085938 C 108.039062 5.085938 106.800781 6.324219 106.800781 7.847656 L 106.800781 14.761719 C 106.800781 14.964844 106.636719 15.128906 106.433594 15.128906 L 96.628906 15.128906 C 96.425781 15.128906 96.257812 14.964844 96.257812 14.761719 L 96.257812 7.847656 C 96.257812 6.324219 95.023438 5.085938 93.496094 5.085938 C 91.972656 5.085938 90.734375 6.324219 90.734375 7.847656 L 90.734375 14.761719 C 90.734375 14.964844 90.570312 15.128906 90.367188 15.128906 L 80.5625 15.128906 C 80.359375 15.128906 80.191406 14.964844 80.191406 14.761719 L 80.191406 7.847656 C 80.191406 6.324219 78.957031 5.085938 77.429688 5.085938 C 75.90625 5.085938 74.667969 6.324219 74.667969 7.847656 L 74.667969 14.761719 C 74.667969 14.964844 74.503906 15.128906 74.300781 15.128906 L 64.496094 15.128906 C 64.292969 15.128906 64.125 14.964844 64.125 14.761719 L 64.125 7.847656 C 64.125 6.324219 62.890625 5.085938 61.363281 5.085938 C 59.839844 5.085938 58.601562 6.324219 58.601562 7.847656 L 58.601562 14.761719 C 58.601562 14.964844 58.4375 15.128906 58.234375 15.128906 L 48.425781 15.128906 C 48.226562 15.128906 48.058594 14.964844 48.058594 14.761719 L 48.058594 7.847656 C 48.058594 6.324219 46.824219 5.085938 45.296875 5.085938 C 43.773438 5.085938 42.535156 6.324219 42.535156 7.847656 L 42.535156 14.761719 C 42.535156 14.964844 42.371094 15.128906 42.167969 15.128906 L 32.359375 15.128906 C 32.160156 15.128906 31.992188 14.964844 31.992188 14.761719 L 31.992188 7.847656 C 31.992188 6.324219 30.757812 5.085938 29.230469 5.085938 C 27.707031 5.085938 26.472656 6.324219 26.472656 7.847656 Z M 97.460938 137.785156 C 97.664062 137.785156 97.828125 137.949219 97.828125 138.152344 L 97.828125 181.085938 C 97.828125 182.273438 97.339844 183.355469 96.554688 184.140625 C 93.796875 186.898438 89.167969 184.871094 89.167969 181.085938 L 89.167969 138.152344 C 89.167969 137.949219 89.335938 137.785156 89.535156 137.785156 Z M 108.109375 125.007812 C 108.394531 125.007812 108.570312 125.3125 108.433594 125.558594 L 106.796875 128.464844 C 105.421875 130.914062 103.113281 132.261719 100.296875 132.261719 L 86.703125 132.261719 C 83.886719 132.261719 81.578125 130.914062 80.199219 128.464844 L 78.566406 125.558594 C 78.429688 125.3125 78.605469 125.007812 78.886719 125.007812 Z M 48.25 99.046875 C 48.058594 99.046875 47.902344 98.90625 47.882812 98.714844 C 47.675781 96.5625 47.605469 94.375 47.625 92.164062 C 47.628906 91.960938 47.792969 91.796875 47.992188 91.796875 L 139.003906 91.796875 C 139.207031 91.796875 139.371094 91.960938 139.371094 92.164062 C 139.394531 94.359375 139.324219 96.535156 139.113281 98.714844 C 139.09375 98.90625 138.933594 99.046875 138.746094 99.046875 Z M 137.710938 104.570312 C 137.949219 104.570312 138.125 104.792969 138.066406 105.027344 C 137.0625 109.121094 135.386719 113.0625 132.726562 116.792969 C 131.464844 118.566406 129.667969 119.488281 127.480469 119.488281 L 59.515625 119.488281 C 57.328125 119.488281 55.535156 118.566406 54.269531 116.792969 C 51.613281 113.0625 49.933594 109.121094 48.929688 105.027344 C 48.875 104.792969 49.046875 104.570312 49.289062 104.570312 Z M 48.5625 51.835938 L 48.5625 29.941406 C 48.5625 28.414062 49.800781 27.179688 51.324219 27.179688 C 52.847656 27.179688 54.085938 28.414062 54.085938 29.941406 L 54.085938 51.835938 C 54.085938 53.359375 52.851562 54.59375 51.324219 54.59375 C 49.800781 54.59375 48.5625 53.359375 48.5625 51.835938 Z M 90.738281 70.871094 C 90.738281 69.347656 91.972656 68.109375 93.5 68.109375 C 95.023438 68.109375 96.261719 69.347656 96.261719 70.871094 L 96.261719 79.527344 C 96.261719 81.050781 95.023438 82.289062 93.5 82.289062 C 91.972656 82.289062 90.738281 81.054688 90.738281 79.527344 Z M 79.152344 42.980469 C 85.703125 41.527344 90.882812 36.066406 91.863281 29.445312 C 92.144531 27.566406 94.84375 27.570312 95.128906 29.421875 C 96.160156 36.078125 101.300781 41.574219 107.824219 42.976562 C 109.570312 43.351562 109.5625 45.824219 107.847656 46.203125 C 101.296875 47.65625 96.113281 53.121094 95.132812 59.742188 C 94.855469 61.621094 92.15625 61.617188 91.867188 59.765625 C 90.835938 53.109375 85.699219 47.613281 79.175781 46.210938 C 77.425781 45.835938 77.433594 43.359375 79.152344 42.980469 Z M 121.414062 60.820312 C 119.6875 60.464844 119.660156 57.976562 121.390625 57.59375 C 125.867188 56.601562 129.417969 52.863281 130.089844 48.339844 C 130.367188 46.457031 133.066406 46.464844 133.355469 48.316406 C 134.058594 52.863281 137.578125 56.628906 142.03125 57.589844 C 143.777344 57.964844 143.769531 60.4375 142.054688 60.816406 C 137.582031 61.808594 134.027344 65.546875 133.359375 70.070312 C 133.078125 71.953125 130.378906 71.945312 130.09375 70.09375 C 129.386719 65.527344 125.90625 61.828125 121.414062 60.820312 Z M 55.117188 63.066406 C 59.59375 62.070312 63.144531 58.335938 63.8125 53.8125 C 64.09375 51.929688 66.792969 51.9375 67.078125 53.789062 C 67.785156 58.335938 71.300781 62.101562 75.757812 63.058594 C 77.503906 63.4375 77.496094 65.910156 75.78125 66.289062 C 71.304688 67.277344 67.753906 71.019531 67.082031 75.542969 C 66.804688 77.421875 64.105469 77.417969 63.816406 75.566406 C 63.113281 71.019531 59.597656 67.253906 55.140625 66.292969 C 53.390625 65.917969 53.402344 63.445312 55.117188 63.066406 Z M 116.84375 28.699219 C 116.84375 27.171875 118.082031 25.9375 119.605469 25.9375 C 121.132812 25.9375 122.367188 27.171875 122.367188 28.699219 L 122.367188 46.007812 C 122.367188 47.53125 121.132812 48.769531 119.605469 48.769531 C 118.082031 48.769531 116.84375 47.53125 116.84375 46.007812 Z M 116.84375 28.699219 " fill-opacity="1" fill-rule="evenodd"/></g></svg>