<svg xmlns="http://www.w3.org/2000/svg" xmlns:xlink="http://www.w3.org/1999/xlink" width="250" zoomAndPan="magnify" viewBox="0 0 187.5 187.499992" height="250" preserveAspectRatio="xMidYMid meet" version="1.0"><defs><filter x="0%" y="0%" width="100%" height="100%" id="ccd21278c9"><feColorMatrix values="0 0 0 0 1 0 0 0 0 1 0 0 0 0 1 0 0 0 1 0" color-interpolation-filters="sRGB"/></filter><mask id="e917870005"><g filter="url(#ccd21278c9)"><rect x="-18.75" width="225" fill="#000000" y="-18.749999" height="224.99999" fill-opacity="0.2"/></g></mask><clipPath id="0d6111300e"><path d="M 1 1.359375 L 184 1.359375 L 184 150.960938 L 1 150.960938 Z M 1 1.359375 " clip-rule="nonzero"/></clipPath><clipPath id="f6b0d58c78"><rect x="0" width="185" y="0" height="152"/></clipPath><clipPath id="cecfc186c0"><path d="M 12 23.140625 L 131 23.140625 L 131 154 L 12 154 Z M 12 23.140625 " clip-rule="nonzero"/></clipPath><clipPath id="6cca67419a"><path d="M 125 23.140625 L 145 23.140625 L 145 98 L 125 98 Z M 125 23.140625 " clip-rule="nonzero"/></clipPath><clipPath id="1aea627d5e"><path d="M 124 111 L 185 111 L 185 163.765625 L 124 163.765625 Z M 124 111 " clip-rule="nonzero"/></clipPath></defs><g mask="url(#e917870005)"><g transform="matrix(1, 0, 0, 1, 1, 17)"><g clip-path="url(#f6b0d58c78)"><g clip-path="url(#0d6111300e)"><path fill="#3b7bbe" d="M 54.054688 1.46875 C 58.808594 1.359375 66.925781 3.554688 74.785156 6.882812 C 76.46875 7.574219 78.148438 8.234375 79.757812 9.039062 C 86.449219 12.4375 93.359375 12.402344 100.417969 10.539062 C 104.253906 9.511719 107.984375 8.085938 111.859375 7.246094 C 116.46875 6.257812 121.074219 5.96875 125.679688 7.320312 C 132.261719 9.292969 137.308594 13.390625 140.925781 19.09375 C 146.996094 28.5625 149.042969 38.910156 147.835938 50.058594 C 147.179688 55.910156 145.972656 61.652344 145.425781 67.5 C 144.730469 74.996094 147.324219 80.992188 152.917969 85.890625 C 157.304688 89.695312 162.207031 92.800781 166.886719 96.203125 C 171.089844 99.273438 175.113281 102.527344 178.183594 106.804688 C 184.472656 115.617188 185.898438 124.976562 180.707031 134.8125 C 178.074219 139.820312 173.832031 143.183594 168.75 145.488281 C 162.5 148.339844 155.878906 149.144531 149.042969 148.851562 C 135.039062 148.265625 122.71875 143.148438 111.164062 135.578125 C 108.128906 133.605469 105.023438 131.703125 101.734375 130.167969 C 92.117188 125.632812 82.828125 126.402344 73.871094 131.957031 C 69.8125 134.480469 66.265625 137.625 62.613281 140.660156 C 58.808594 143.839844 54.933594 146.839844 50.398438 148.851562 C 46.597656 150.53125 42.648438 151.300781 38.554688 150.386719 C 33.253906 149.253906 29.414062 146.109375 26.925781 141.28125 C 23.855469 135.285156 23.378906 128.886719 24.148438 122.34375 C 24.878906 115.945312 26.78125 109.839844 28.863281 103.804688 C 30.730469 98.433594 32.628906 93.019531 33.472656 87.355469 C 33.984375 83.988281 34.054688 80.625 33.542969 77.261719 C 32.703125 71.816406 29.851562 67.464844 25.574219 64.0625 C 22.796875 61.832031 19.796875 60.003906 16.761719 58.105469 C 13.910156 56.3125 11.097656 54.449219 8.609375 52.144531 C 0.929688 44.976562 -0.898438 36.386719 3.34375 26.734375 C 7.257812 17.847656 13.984375 11.742188 22.648438 7.683594 C 31.351562 3.589844 40.601562 1.617188 54.054688 1.46875 Z M 54.054688 1.46875 " fill-opacity="1" fill-rule="nonzero"/></g></g></g></g><g clip-path="url(#cecfc186c0)"><path fill="#ee3e95" d="M 39.875 146.25 L 39.875 89.144531 L 70.238281 89.144531 L 70.238281 146.25 Z M 80.992188 126.941406 C 80.992188 125.300781 82.320312 123.976562 83.957031 123.976562 L 112.976562 123.976562 C 114.613281 123.976562 115.941406 125.300781 115.941406 126.941406 C 115.941406 128.578125 114.613281 129.90625 112.976562 129.90625 L 83.957031 129.90625 C 82.320312 129.90625 80.992188 128.578125 80.992188 126.941406 Z M 83.40625 105.988281 L 96.6875 105.988281 L 96.6875 119.269531 L 83.40625 119.269531 Z M 96.6875 89.25 L 96.6875 102.429688 L 83.507812 102.429688 C 84.320312 95.53125 89.789062 90.058594 96.6875 89.25 Z M 109.117188 93.554688 C 111.449219 95.886719 113.019531 98.980469 113.425781 102.429688 L 100.246094 102.429688 L 100.246094 89.25 C 103.695312 89.652344 106.785156 91.222656 109.117188 93.554688 Z M 100.246094 105.988281 L 113.53125 105.988281 L 113.53125 119.269531 L 100.246094 119.269531 Z M 123.085938 122.851562 C 123.148438 122.675781 124.050781 120.289062 125.828125 117.511719 L 125.828125 86.773438 L 130.816406 86.773438 L 128.25 68.714844 L 79.980469 24.675781 C 78.804688 23.605469 77.011719 23.605469 75.839844 24.675781 L 13.628906 81.429688 C 11.558594 83.320312 12.894531 86.773438 15.699219 86.773438 L 29.992188 86.773438 L 29.992188 146.25 L 17.617188 146.25 C 15.746094 146.25 14.226562 147.769531 14.226562 149.640625 C 14.226562 151.515625 15.746094 153.035156 17.617188 153.035156 L 127.554688 153.035156 C 126.058594 150.914062 124.8125 148.632812 123.832031 146.25 C 120.761719 138.78125 120.316406 130.328125 123.085938 122.851562 " fill-opacity="1" fill-rule="nonzero"/></g><path fill="#ee3e95" d="M 65.097656 115.367188 C 63.8125 115.367188 62.769531 116.410156 62.769531 117.699219 C 62.769531 118.984375 63.8125 120.027344 65.097656 120.027344 C 66.386719 120.027344 67.429688 118.984375 67.429688 117.699219 C 67.429688 116.410156 66.386719 115.367188 65.097656 115.367188 " fill-opacity="1" fill-rule="nonzero"/><g clip-path="url(#6cca67419a)"><path fill="#ee3e95" d="M 132.003906 72.140625 L 134.085938 86.773438 L 135.652344 97.800781 L 144.375 96.382812 L 142.429688 85.730469 L 141.535156 80.832031 L 131.421875 25.515625 C 131.164062 24.121094 129.917969 23.136719 128.5 23.136719 C 128.375 23.136719 128.25 23.144531 128.125 23.15625 C 127.300781 23.261719 126.574219 23.671875 126.078125 24.320312 C 125.605469 24.941406 125.402344 25.707031 125.507812 26.46875 L 132.003906 72.140625 " fill-opacity="1" fill-rule="nonzero"/></g><g clip-path="url(#1aea627d5e)"><path fill="#ee3e95" d="M 172.859375 141.242188 C 171.933594 139.460938 167.46875 130.554688 164.148438 122.589844 L 164.136719 122.570312 C 163.84375 121.859375 163.148438 120.195312 161.78125 118.304688 C 160.59375 116.664062 158.507812 114.328125 155.308594 112.53125 C 154.253906 111.9375 153.136719 111.4375 151.984375 111.039062 C 150.332031 110.984375 148.667969 111.011719 147.015625 111.125 C 145.316406 111.238281 143.621094 111.4375 141.945312 111.726562 C 140.558594 111.964844 139.175781 112.265625 137.808594 112.621094 C 136.207031 113.039062 134.621094 113.539062 133.066406 114.113281 C 128.496094 117.664062 126.144531 123.910156 126.121094 123.972656 C 126.015625 124.253906 125.917969 124.535156 125.828125 124.816406 C 123.972656 130.417969 124.070312 136.570312 125.828125 142.285156 C 126.242188 143.636719 126.75 144.960938 127.34375 146.25 C 128.464844 148.671875 129.898438 150.960938 131.621094 153.035156 C 132.929688 154.609375 134.40625 156.0625 136.039062 157.347656 C 141.152344 161.378906 147.523438 163.636719 153.984375 163.855469 C 148.257812 160.648438 145.402344 155.53125 144.195312 152.703125 L 141.214844 145.71875 L 146.785156 150.882812 C 149.601562 153.492188 155.609375 158.046875 164.210938 159.226562 C 166.527344 159.542969 168.851562 159.601562 171.164062 159.398438 C 170.402344 159.066406 169.652344 158.703125 168.925781 158.300781 C 165.078125 156.171875 161.867188 153.089844 159.382812 149.140625 C 157.96875 146.898438 156.808594 144.371094 156.027344 141.835938 L 153.800781 134.625 L 158.789062 140.292969 C 161.839844 143.757812 167.09375 148.511719 174.820312 151.460938 C 177.921875 152.648438 181.128906 153.441406 184.402344 153.832031 C 179.210938 150.21875 175.34375 146 172.859375 141.242188 " fill-opacity="1" fill-rule="nonzero"/></g><path fill="#ee3e95" d="M 148.308594 100.433594 C 148.132812 99.746094 147.519531 99.285156 146.832031 99.285156 C 146.75 99.285156 146.664062 99.289062 146.582031 99.304688 L 146.554688 99.308594 L 144.957031 99.566406 L 136.109375 101.003906 L 134.511719 101.265625 L 134.484375 101.269531 C 133.699219 101.398438 133.148438 102.09375 133.203125 102.890625 L 133.300781 104.238281 L 133.699219 109.8125 L 133.746094 110.445312 C 134 110.363281 134.257812 110.28125 134.515625 110.199219 C 135.058594 110.027344 135.605469 109.867188 136.15625 109.714844 C 136.792969 109.539062 137.429688 109.375 138.070312 109.21875 C 139.175781 108.957031 140.28125 108.726562 141.398438 108.535156 C 142.820312 108.292969 144.253906 108.105469 145.695312 107.980469 C 146.351562 107.921875 147.011719 107.878906 147.667969 107.847656 C 148.238281 107.816406 148.808594 107.796875 149.375 107.785156 C 149.648438 107.78125 149.917969 107.777344 150.191406 107.777344 L 150.03125 107.160156 L 148.644531 101.746094 L 148.308594 100.433594 " fill-opacity="1" fill-rule="nonzero"/><path fill="#ee3e95" d="M 165.863281 85.0625 C 168.335938 68.429688 170.339844 66.425781 186.972656 63.953125 C 170.339844 61.480469 168.335938 59.476562 165.863281 42.84375 C 163.390625 59.476562 161.386719 61.480469 144.753906 63.953125 C 161.386719 66.425781 163.390625 68.429688 165.863281 85.0625 " fill-opacity="1" fill-rule="nonzero"/><path fill="#ee3e95" d="M 174.199219 81.488281 C 172.703125 91.550781 171.492188 92.765625 161.429688 94.261719 C 171.492188 95.757812 172.703125 96.96875 174.199219 107.03125 C 175.695312 96.96875 176.910156 95.757812 186.972656 94.261719 C 176.910156 92.765625 175.695312 91.550781 174.199219 81.488281 " fill-opacity="1" fill-rule="nonzero"/><path fill="#ee3e95" d="M 10.492188 103.308594 C 9.265625 111.554688 8.273438 112.546875 0.03125 113.773438 C 8.273438 115 9.265625 115.996094 10.492188 124.238281 C 11.71875 115.996094 12.714844 115 20.957031 113.773438 C 12.714844 112.546875 11.71875 111.554688 10.492188 103.308594 " fill-opacity="1" fill-rule="nonzero"/></svg>