<svg xmlns="http://www.w3.org/2000/svg" xmlns:xlink="http://www.w3.org/1999/xlink" width="250" zoomAndPan="magnify" viewBox="0 0 187.5 187.499992" height="250" preserveAspectRatio="xMidYMid meet" version="1.0"><defs><filter x="0%" y="0%" width="100%" height="100%" id="9fe9fb86a9"><feColorMatrix values="0 0 0 0 1 0 0 0 0 1 0 0 0 0 1 0 0 0 1 0" color-interpolation-filters="sRGB"/></filter><mask id="7b32203f5f"><g filter="url(#9fe9fb86a9)"><rect x="-18.75" width="225" fill="#000000" y="-18.749999" height="224.99999" fill-opacity="0.2"/></g></mask><clipPath id="fca4827a48"><path d="M 1 1.359375 L 184 1.359375 L 184 150.960938 L 1 150.960938 Z M 1 1.359375 " clip-rule="nonzero"/></clipPath><clipPath id="995cb7ec15"><rect x="0" width="185" y="0" height="152"/></clipPath><clipPath id="33ae5a8d76"><path d="M 2.617188 2.671875 L 184 2.671875 L 184 183.691406 L 2.617188 183.691406 Z M 2.617188 2.671875 " clip-rule="nonzero"/></clipPath></defs><g mask="url(#7b32203f5f)"><g transform="matrix(1, 0, 0, 1, 1, 17)"><g clip-path="url(#995cb7ec15)"><g clip-path="url(#fca4827a48)"><path fill="#3b7bbe" d="M 54.054688 1.46875 C 58.808594 1.359375 66.925781 3.554688 74.785156 6.882812 C 76.46875 7.574219 78.148438 8.234375 79.757812 9.039062 C 86.449219 12.4375 93.359375 12.402344 100.417969 10.539062 C 104.253906 9.511719 107.984375 8.085938 111.859375 7.246094 C 116.46875 6.257812 121.074219 5.96875 125.679688 7.320312 C 132.261719 9.292969 137.308594 13.390625 140.925781 19.09375 C 146.996094 28.5625 149.042969 38.910156 147.835938 50.058594 C 147.179688 55.910156 145.972656 61.652344 145.425781 67.5 C 144.730469 74.996094 147.324219 80.992188 152.917969 85.890625 C 157.304688 89.695312 162.207031 92.800781 166.886719 96.203125 C 171.089844 99.273438 175.113281 102.527344 178.183594 106.804688 C 184.472656 115.617188 185.898438 124.976562 180.707031 134.8125 C 178.074219 139.820312 173.832031 143.183594 168.75 145.488281 C 162.5 148.339844 155.878906 149.144531 149.042969 148.851562 C 135.039062 148.265625 122.71875 143.148438 111.164062 135.578125 C 108.128906 133.605469 105.023438 131.703125 101.734375 130.167969 C 92.117188 125.632812 82.828125 126.402344 73.871094 131.957031 C 69.8125 134.480469 66.265625 137.625 62.613281 140.660156 C 58.808594 143.839844 54.933594 146.839844 50.398438 148.851562 C 46.597656 150.53125 42.648438 151.300781 38.554688 150.386719 C 33.253906 149.253906 29.414062 146.109375 26.925781 141.28125 C 23.855469 135.285156 23.378906 128.886719 24.148438 122.34375 C 24.878906 115.945312 26.78125 109.839844 28.863281 103.804688 C 30.730469 98.433594 32.628906 93.019531 33.472656 87.355469 C 33.984375 83.988281 34.054688 80.625 33.542969 77.261719 C 32.703125 71.816406 29.851562 67.464844 25.574219 64.0625 C 22.796875 61.832031 19.796875 60.003906 16.761719 58.105469 C 13.910156 56.3125 11.097656 54.449219 8.609375 52.144531 C 0.929688 44.976562 -0.898438 36.386719 3.34375 26.734375 C 7.257812 17.847656 13.984375 11.742188 22.648438 7.683594 C 31.351562 3.589844 40.601562 1.617188 54.054688 1.46875 Z M 54.054688 1.46875 " fill-opacity="1" fill-rule="nonzero"/></g></g></g></g><g clip-path="url(#33ae5a8d76)"><path fill="#ee3e95" d="M 180.847656 4.699219 L 179.066406 3.664062 C 177.796875 2.933594 176.316406 2.738281 174.894531 3.121094 C 173.472656 3.5 172.289062 4.410156 171.554688 5.679688 L 154.46875 35.273438 L 151.523438 33.570312 C 151.007812 33.273438 150.390625 33.191406 149.816406 33.347656 C 149.238281 33.5 148.746094 33.878906 148.449219 34.398438 L 144.8125 40.699219 C 140.289062 42.703125 135.554688 46.953125 132.820312 51.585938 C 132.773438 51.667969 132.726562 51.761719 132.691406 51.847656 C 130.597656 56.746094 125.707031 59.382812 121.777344 59.816406 C 120.066406 60.007812 118.660156 61.140625 118.101562 62.765625 C 117.539062 64.394531 117.960938 66.152344 119.191406 67.351562 C 122.859375 70.921875 127.664062 74.46875 133.082031 77.59375 C 137.09375 79.910156 141.265625 81.875 145.144531 83.285156 C 146.152344 83.648438 147.175781 83.828125 148.183594 83.828125 C 150.367188 83.828125 152.46875 82.988281 154.144531 81.378906 C 156.488281 79.132812 158.722656 76.101562 161.179688 71.84375 C 165.070312 65.109375 166.757812 58.289062 165.957031 52.789062 L 169.542969 46.574219 C 170.167969 45.496094 169.792969 44.117188 168.71875 43.496094 L 165.773438 41.792969 L 182.859375 12.199219 C 184.375 9.582031 183.472656 6.214844 180.847656 4.699219 Z M 151.21875 38.601562 L 164.511719 46.277344 L 163.097656 48.730469 L 149.800781 41.058594 Z M 157.277344 69.59375 C 155.039062 73.472656 153.046875 76.1875 151.019531 78.132812 C 149.824219 79.285156 148.234375 79.621094 146.675781 79.050781 C 145.90625 78.773438 145.121094 78.464844 144.328125 78.140625 C 147.742188 75.941406 150.878906 72.601562 153.1875 68.601562 C 154.007812 67.175781 154.714844 65.695312 155.285156 64.195312 C 155.730469 63.03125 155.148438 61.730469 153.984375 61.289062 C 152.820312 60.847656 151.519531 61.429688 151.078125 62.59375 C 150.589844 63.867188 149.988281 65.132812 149.28125 66.351562 C 146.6875 70.84375 142.953125 74.304688 139.160156 75.769531 C 137.875 75.121094 136.59375 74.429688 135.328125 73.699219 C 133.980469 72.921875 132.683594 72.121094 131.433594 71.304688 C 135.804688 70.222656 139.703125 67.375 142.09375 63.238281 C 142.875 61.882812 143.464844 60.4375 143.855469 58.941406 C 144.167969 57.738281 143.449219 56.507812 142.246094 56.195312 C 141.042969 55.878906 139.8125 56.601562 139.496094 57.804688 C 139.207031 58.910156 138.769531 59.980469 138.191406 60.980469 C 135.609375 65.457031 130.648438 67.882812 125.730469 67.144531 C 124.566406 66.191406 123.476562 65.234375 122.476562 64.273438 C 127.628906 63.628906 133.964844 60.15625 136.761719 53.761719 C 139.394531 49.363281 143.71875 46.003906 147.019531 44.65625 L 161.421875 52.972656 C 162.253906 57.46875 160.738281 63.597656 157.277344 69.59375 Z M 178.957031 9.953125 L 161.867188 39.550781 L 158.363281 37.527344 L 175.453125 7.929688 C 175.628906 7.628906 175.90625 7.515625 176.058594 7.472656 C 176.207031 7.433594 176.503906 7.390625 176.808594 7.566406 L 178.589844 8.59375 C 179.0625 8.871094 179.226562 9.488281 178.957031 9.953125 Z M 168.484375 89.867188 L 77.6875 89.867188 L 77.6875 86.734375 C 77.6875 83.453125 75.019531 80.78125 71.734375 80.78125 L 63.035156 80.78125 C 59.753906 80.78125 57.082031 83.449219 57.082031 86.734375 L 57.082031 89.867188 L 35.925781 89.867188 L 35.925781 85.957031 C 35.925781 84.714844 34.914062 83.703125 33.671875 83.703125 C 32.429688 83.703125 31.417969 84.714844 31.417969 85.957031 L 31.417969 89.867188 L 27.960938 89.867188 L 27.960938 60.847656 C 27.960938 57.816406 30.421875 55.351562 33.453125 55.351562 C 36.484375 55.351562 38.945312 57.816406 38.945312 60.847656 L 38.945312 65.398438 C 38.945312 66.640625 39.957031 67.648438 41.199219 67.648438 C 42.441406 67.648438 43.453125 66.640625 43.453125 65.398438 L 43.453125 60.847656 C 43.453125 55.335938 38.964844 50.847656 33.453125 50.847656 C 27.941406 50.847656 23.453125 55.335938 23.453125 60.847656 L 23.453125 89.867188 L 19.992188 89.867188 L 19.992188 85.957031 C 19.992188 84.714844 18.984375 83.703125 17.738281 83.703125 C 16.496094 83.703125 15.488281 84.714844 15.488281 85.957031 L 15.488281 89.867188 L 7.96875 89.867188 C 5.019531 89.867188 2.617188 92.269531 2.617188 95.21875 L 2.617188 178.550781 C 2.617188 181.507812 5.019531 183.910156 7.96875 183.910156 L 168.480469 183.910156 C 171.429688 183.910156 173.835938 181.507812 173.835938 178.554688 L 173.835938 95.21875 C 173.839844 92.269531 171.433594 89.867188 168.484375 89.867188 Z M 169.332031 95.21875 L 169.332031 107.746094 L 90.480469 107.746094 L 90.480469 94.371094 L 168.484375 94.371094 C 168.941406 94.371094 169.332031 94.761719 169.332031 95.21875 Z M 85.972656 107.746094 L 48.804688 107.746094 L 48.804688 94.371094 L 85.972656 94.371094 Z M 48.800781 126.738281 L 53.90625 126.738281 C 54.425781 126.738281 54.871094 127.179688 54.871094 127.703125 L 54.871094 145.585938 C 54.871094 146.109375 54.425781 146.550781 53.90625 146.550781 L 48.800781 146.550781 Z M 44.292969 146.546875 L 39.1875 146.546875 C 38.664062 146.546875 38.222656 146.109375 38.222656 145.582031 L 38.222656 127.703125 C 38.222656 127.179688 38.660156 126.738281 39.1875 126.738281 L 44.292969 126.738281 Z M 48.800781 151.054688 L 53.90625 151.054688 C 56.921875 151.054688 59.375 148.601562 59.375 145.582031 L 59.375 127.703125 C 59.375 124.6875 56.921875 122.230469 53.90625 122.230469 L 48.800781 122.230469 L 48.800781 112.25 L 85.96875 112.25 L 85.96875 179.40625 L 48.800781 179.40625 Z M 61.589844 86.734375 C 61.589844 85.949219 62.257812 85.285156 63.039062 85.285156 L 71.738281 85.285156 C 72.519531 85.285156 73.1875 85.949219 73.1875 86.734375 L 73.1875 89.867188 L 61.59375 89.867188 L 61.59375 86.734375 Z M 7.96875 94.371094 L 44.292969 94.371094 L 44.292969 107.746094 L 7.121094 107.746094 L 7.121094 95.21875 C 7.121094 94.761719 7.511719 94.371094 7.96875 94.371094 Z M 7.121094 178.554688 L 7.121094 112.25 L 44.292969 112.25 L 44.292969 122.230469 L 39.1875 122.230469 C 36.171875 122.230469 33.714844 124.6875 33.714844 127.703125 L 33.714844 145.585938 C 33.714844 148.601562 36.167969 151.058594 39.1875 151.058594 L 44.292969 151.058594 L 44.292969 179.40625 L 7.96875 179.40625 C 7.511719 179.40625 7.121094 179.015625 7.121094 178.554688 Z M 168.484375 179.40625 L 90.480469 179.40625 L 90.480469 112.25 L 169.332031 112.25 L 169.332031 178.554688 C 169.332031 179.015625 168.941406 179.40625 168.484375 179.40625 Z M 19.488281 101.058594 C 19.488281 99.816406 20.5 98.804688 21.742188 98.804688 L 29.671875 98.804688 C 30.914062 98.804688 31.925781 99.816406 31.925781 101.058594 C 31.925781 102.300781 30.914062 103.3125 29.671875 103.3125 L 21.742188 103.3125 C 20.5 103.3125 19.488281 102.304688 19.488281 101.058594 Z M 61.171875 101.058594 C 61.171875 99.816406 62.179688 98.804688 63.421875 98.804688 L 71.355469 98.804688 C 72.597656 98.804688 73.605469 99.816406 73.605469 101.058594 C 73.605469 102.300781 72.597656 103.3125 71.355469 103.3125 L 63.421875 103.3125 C 62.175781 103.3125 61.171875 102.304688 61.171875 101.058594 Z M 155.933594 119.777344 L 103.878906 119.777344 C 100.070312 119.777344 96.96875 122.878906 96.96875 126.6875 L 96.96875 165.578125 C 96.96875 169.390625 100.070312 172.492188 103.878906 172.492188 L 155.933594 172.492188 C 159.742188 172.492188 162.84375 169.390625 162.84375 165.578125 L 162.84375 126.6875 C 162.84375 122.875 159.742188 119.777344 155.933594 119.777344 Z M 103.878906 124.28125 L 155.933594 124.28125 C 157.261719 124.28125 158.339844 125.363281 158.339844 126.6875 L 158.339844 134.078125 L 101.472656 134.078125 L 101.472656 126.6875 C 101.472656 125.359375 102.554688 124.28125 103.878906 124.28125 Z M 155.933594 167.988281 L 103.878906 167.988281 C 102.550781 167.988281 101.472656 166.90625 101.472656 165.578125 L 101.472656 138.582031 L 158.339844 138.582031 L 158.339844 165.578125 C 158.339844 166.910156 157.257812 167.988281 155.933594 167.988281 Z M 119.636719 101.058594 C 119.636719 99.816406 120.644531 98.804688 121.886719 98.804688 C 123.132812 98.804688 124.140625 99.816406 124.140625 101.058594 C 124.140625 102.300781 123.132812 103.3125 121.886719 103.3125 C 120.644531 103.3125 119.636719 102.304688 119.636719 101.058594 Z M 135.667969 101.058594 C 135.667969 99.816406 136.679688 98.804688 137.921875 98.804688 C 139.164062 98.804688 140.171875 99.816406 140.171875 101.058594 C 140.171875 102.300781 139.164062 103.3125 137.921875 103.3125 C 136.679688 103.3125 135.667969 102.304688 135.667969 101.058594 Z M 103.601562 101.058594 C 103.601562 99.816406 104.613281 98.804688 105.855469 98.804688 C 107.097656 98.804688 108.109375 99.816406 108.109375 101.058594 C 108.109375 102.300781 107.097656 103.3125 105.855469 103.3125 C 104.613281 103.3125 103.601562 102.304688 103.601562 101.058594 Z M 151.699219 101.058594 C 151.699219 99.816406 152.710938 98.804688 153.953125 98.804688 C 155.195312 98.804688 156.207031 99.816406 156.207031 101.058594 C 156.207031 102.300781 155.195312 103.3125 153.953125 103.3125 C 152.710938 103.3125 151.699219 102.304688 151.699219 101.058594 Z M 6.101562 44.246094 C 8.902344 44.246094 13.992188 49.335938 13.992188 52.140625 C 13.992188 53.382812 15.003906 54.390625 16.246094 54.390625 C 17.488281 54.390625 18.5 53.382812 18.5 52.140625 C 18.5 49.339844 23.585938 44.246094 26.390625 44.246094 C 27.632812 44.246094 28.644531 43.238281 28.644531 41.992188 C 28.644531 41.96875 28.644531 41.9375 28.644531 41.910156 C 28.597656 40.707031 27.609375 39.742188 26.394531 39.742188 C 23.59375 39.742188 18.503906 34.652344 18.503906 31.847656 C 18.503906 30.605469 17.492188 29.597656 16.25 29.597656 C 15.007812 29.597656 13.996094 30.605469 13.996094 31.847656 C 13.996094 34.648438 8.910156 39.742188 6.105469 39.742188 C 4.863281 39.742188 3.851562 40.75 3.851562 41.992188 C 3.851562 43.238281 4.859375 44.246094 6.101562 44.246094 Z M 16.242188 37.660156 C 17.414062 39.296875 18.9375 40.824219 20.570312 41.988281 C 18.933594 43.15625 17.410156 44.6875 16.242188 46.320312 C 15.070312 44.683594 13.546875 43.15625 11.914062 41.988281 C 13.550781 40.824219 15.074219 39.296875 16.242188 37.660156 Z M 77.078125 66.1875 C 79.878906 66.1875 84.972656 71.277344 84.972656 74.082031 C 84.972656 75.324219 85.980469 76.335938 87.226562 76.335938 C 88.46875 76.335938 89.476562 75.324219 89.476562 74.082031 C 89.476562 71.28125 94.566406 66.1875 97.371094 66.1875 C 98.613281 66.1875 99.621094 65.179688 99.621094 63.9375 C 99.621094 62.695312 98.613281 61.683594 97.371094 61.683594 C 94.570312 61.683594 89.476562 56.597656 89.476562 53.792969 C 89.476562 52.519531 88.410156 51.496094 87.140625 51.539062 C 85.9375 51.582031 84.976562 52.570312 84.972656 53.789062 C 84.972656 56.589844 79.882812 61.679688 77.078125 61.679688 C 75.835938 61.679688 74.828125 62.691406 74.828125 63.933594 C 74.828125 65.175781 75.835938 66.1875 77.078125 66.1875 Z M 87.226562 59.601562 C 88.394531 61.242188 89.921875 62.765625 91.554688 63.933594 C 89.917969 65.105469 88.390625 66.628906 87.226562 68.261719 C 86.054688 66.625 84.527344 65.101562 82.894531 63.933594 C 84.527344 62.765625 86.054688 61.242188 87.226562 59.601562 Z M 99.179688 17.585938 C 101.980469 17.585938 107.070312 22.671875 107.070312 25.476562 C 107.070312 26.71875 108.082031 27.730469 109.324219 27.730469 C 110.566406 27.730469 111.578125 26.71875 111.578125 25.476562 C 111.578125 22.675781 116.664062 17.585938 119.46875 17.585938 C 120.714844 17.585938 121.722656 16.574219 121.722656 15.332031 C 121.722656 15.304688 121.722656 15.273438 121.722656 15.25 C 121.679688 14.042969 120.691406 13.078125 119.472656 13.078125 C 116.671875 13.078125 111.582031 7.992188 111.582031 5.1875 C 111.582031 3.914062 110.523438 2.894531 109.246094 2.933594 C 108.039062 2.980469 107.078125 3.964844 107.074219 5.183594 C 107.074219 7.984375 101.988281 13.074219 99.183594 13.074219 C 97.941406 13.074219 96.929688 14.085938 96.929688 15.328125 C 96.929688 16.570312 97.933594 17.585938 99.179688 17.585938 Z M 109.320312 11 C 110.492188 12.636719 112.015625 14.160156 113.648438 15.328125 C 112.011719 16.496094 110.488281 18.023438 109.320312 19.65625 C 108.148438 18.019531 106.625 16.496094 104.992188 15.328125 C 106.628906 14.160156 108.152344 12.636719 109.320312 11 Z M 109.320312 11 " fill-opacity="1" fill-rule="nonzero"/></g></svg>