<svg xmlns="http://www.w3.org/2000/svg" xmlns:xlink="http://www.w3.org/1999/xlink" width="250" zoomAndPan="magnify" viewBox="0 0 187.5 187.499992" height="250" preserveAspectRatio="xMidYMid meet" version="1.0"><defs><filter x="0%" y="0%" width="100%" height="100%" id="da16cd3d95"><feColorMatrix values="0 0 0 0 1 0 0 0 0 1 0 0 0 0 1 0 0 0 1 0" color-interpolation-filters="sRGB"/></filter><mask id="3d587bf5fe"><g filter="url(#da16cd3d95)"><rect x="-18.75" width="225" fill="#000000" y="-18.749999" height="224.99999" fill-opacity="0.2"/></g></mask><clipPath id="4fbd534483"><path d="M 1 1.359375 L 184 1.359375 L 184 150.960938 L 1 150.960938 Z M 1 1.359375 " clip-rule="nonzero"/></clipPath><clipPath id="4ab9f07034"><rect x="0" width="185" y="0" height="152"/></clipPath><clipPath id="d2ac69657e"><path d="M 0.988281 80 L 185.742188 80 L 185.742188 105 L 0.988281 105 Z M 0.988281 80 " clip-rule="nonzero"/></clipPath><clipPath id="f47c781f93"><path d="M 85 148 L 176 148 L 176 172.746094 L 85 172.746094 Z M 85 148 " clip-rule="nonzero"/></clipPath><clipPath id="a85e906ff6"><path d="M 97 159 L 102 159 L 102 172.746094 L 97 172.746094 Z M 97 159 " clip-rule="nonzero"/></clipPath><clipPath id="2c9baa0f95"><path d="M 107 159 L 113 159 L 113 172.746094 L 107 172.746094 Z M 107 159 " clip-rule="nonzero"/></clipPath><clipPath id="27a7bdca4f"><path d="M 117 159 L 123 159 L 123 172.746094 L 117 172.746094 Z M 117 159 " clip-rule="nonzero"/></clipPath><clipPath id="b01ec1812a"><path d="M 128 159 L 133 159 L 133 172.746094 L 128 172.746094 Z M 128 159 " clip-rule="nonzero"/></clipPath><clipPath id="e8131f2d16"><path d="M 138 159 L 144 159 L 144 172.746094 L 138 172.746094 Z M 138 159 " clip-rule="nonzero"/></clipPath><clipPath id="203bb65e5b"><path d="M 148 159 L 154 159 L 154 172.746094 L 148 172.746094 Z M 148 159 " clip-rule="nonzero"/></clipPath><clipPath id="7553c8a946"><path d="M 159 159 L 165 159 L 165 172.746094 L 159 172.746094 Z M 159 159 " clip-rule="nonzero"/></clipPath><clipPath id="fdc1d62063"><path d="M 12 100 L 33 100 L 33 172.746094 L 12 172.746094 Z M 12 100 " clip-rule="nonzero"/></clipPath><clipPath id="1f124581b4"><path d="M 92 14.171875 L 124 14.171875 L 124 46 L 92 46 Z M 92 14.171875 " clip-rule="nonzero"/></clipPath></defs><g mask="url(#3d587bf5fe)"><g transform="matrix(1, 0, 0, 1, 1, 17)"><g clip-path="url(#4ab9f07034)"><g clip-path="url(#4fbd534483)"><path fill="#3b7bbe" d="M 54.054688 1.46875 C 58.808594 1.359375 66.925781 3.554688 74.785156 6.882812 C 76.46875 7.574219 78.148438 8.234375 79.757812 9.039062 C 86.449219 12.4375 93.359375 12.402344 100.417969 10.539062 C 104.253906 9.511719 107.984375 8.085938 111.859375 7.246094 C 116.46875 6.257812 121.074219 5.96875 125.679688 7.320312 C 132.261719 9.292969 137.308594 13.390625 140.925781 19.09375 C 146.996094 28.5625 149.042969 38.910156 147.835938 50.058594 C 147.179688 55.910156 145.972656 61.652344 145.425781 67.5 C 144.730469 74.996094 147.324219 80.992188 152.917969 85.890625 C 157.304688 89.695312 162.207031 92.800781 166.886719 96.203125 C 171.089844 99.273438 175.113281 102.527344 178.183594 106.804688 C 184.472656 115.617188 185.898438 124.976562 180.707031 134.8125 C 178.074219 139.820312 173.832031 143.183594 168.75 145.488281 C 162.5 148.339844 155.878906 149.144531 149.042969 148.851562 C 135.039062 148.265625 122.71875 143.148438 111.164062 135.578125 C 108.128906 133.605469 105.023438 131.703125 101.734375 130.167969 C 92.117188 125.632812 82.828125 126.402344 73.871094 131.957031 C 69.8125 134.480469 66.265625 137.625 62.613281 140.660156 C 58.808594 143.839844 54.933594 146.839844 50.398438 148.851562 C 46.597656 150.53125 42.648438 151.300781 38.554688 150.386719 C 33.253906 149.253906 29.414062 146.109375 26.925781 141.28125 C 23.855469 135.285156 23.378906 128.886719 24.148438 122.34375 C 24.878906 115.945312 26.78125 109.839844 28.863281 103.804688 C 30.730469 98.433594 32.628906 93.019531 33.472656 87.355469 C 33.984375 83.988281 34.054688 80.625 33.542969 77.261719 C 32.703125 71.816406 29.851562 67.464844 25.574219 64.0625 C 22.796875 61.832031 19.796875 60.003906 16.761719 58.105469 C 13.910156 56.3125 11.097656 54.449219 8.609375 52.144531 C 0.929688 44.976562 -0.898438 36.386719 3.34375 26.734375 C 7.257812 17.847656 13.984375 11.742188 22.648438 7.683594 C 31.351562 3.589844 40.601562 1.617188 54.054688 1.46875 Z M 54.054688 1.46875 " fill-opacity="1" fill-rule="nonzero"/></g></g></g></g><path fill="#ee3e95" d="M 75.65625 77.238281 L 14.523438 77.238281 C 9.628906 77.238281 5.648438 73.253906 5.648438 68.359375 C 5.648438 67.03125 6.722656 65.957031 8.050781 65.957031 C 9.375 65.957031 10.453125 67.03125 10.453125 68.359375 C 10.453125 70.605469 12.28125 72.429688 14.523438 72.429688 L 75.65625 72.429688 C 77.902344 72.429688 79.726562 70.605469 79.726562 68.359375 L 79.726562 28.984375 C 79.726562 26.738281 77.902344 24.914062 75.65625 24.914062 L 14.523438 24.914062 C 12.28125 24.914062 10.453125 26.738281 10.453125 28.984375 C 10.453125 30.3125 9.375 31.386719 8.050781 31.386719 C 6.722656 31.386719 5.648438 30.3125 5.648438 28.984375 C 5.648438 24.085938 9.632812 20.105469 14.523438 20.105469 L 75.65625 20.105469 C 80.554688 20.105469 84.535156 24.089844 84.535156 28.984375 L 84.535156 68.359375 C 84.535156 73.253906 80.554688 77.238281 75.65625 77.238281 Z M 75.65625 77.238281 " fill-opacity="1" fill-rule="nonzero"/><path fill="#ee3e95" d="M 82.132812 65.511719 L 8.046875 65.511719 C 6.71875 65.511719 5.644531 64.433594 5.644531 63.105469 C 5.644531 61.78125 6.71875 60.703125 8.046875 60.703125 L 82.132812 60.703125 C 83.457031 60.703125 84.535156 61.78125 84.535156 63.105469 C 84.535156 64.433594 83.457031 65.511719 82.132812 65.511719 Z M 82.132812 65.511719 " fill-opacity="1" fill-rule="nonzero"/><path fill="#ee3e95" d="M 59.644531 85.527344 C 58.316406 85.527344 57.242188 84.449219 57.242188 83.125 L 57.242188 74.835938 C 57.242188 73.507812 58.316406 72.429688 59.644531 72.429688 C 60.972656 72.429688 62.046875 73.507812 62.046875 74.835938 L 62.046875 83.125 C 62.046875 84.449219 60.972656 85.527344 59.644531 85.527344 Z M 30.535156 85.527344 C 29.210938 85.527344 28.132812 84.449219 28.132812 83.125 L 28.132812 74.835938 C 28.132812 73.507812 29.210938 72.429688 30.535156 72.429688 C 31.863281 72.429688 32.941406 73.507812 32.941406 74.835938 L 32.941406 83.125 C 32.941406 84.449219 31.863281 85.527344 30.535156 85.527344 Z M 30.535156 85.527344 " fill-opacity="1" fill-rule="nonzero"/><path fill="#ee3e95" d="M 8.046875 70.761719 C 6.71875 70.761719 5.644531 69.6875 5.644531 68.359375 L 5.644531 28.984375 C 5.644531 27.65625 6.71875 26.582031 8.046875 26.582031 C 9.371094 26.582031 10.449219 27.65625 10.449219 28.984375 L 10.449219 68.359375 C 10.449219 69.6875 9.375 70.761719 8.046875 70.761719 Z M 8.046875 70.761719 " fill-opacity="1" fill-rule="nonzero"/><g clip-path="url(#d2ac69657e)"><path fill="#ee3e95" d="M 173.972656 104.816406 L 137.691406 104.816406 C 136.367188 104.816406 135.289062 103.742188 135.289062 102.414062 C 135.289062 101.089844 136.367188 100.011719 137.691406 100.011719 L 173.972656 100.011719 C 177.964844 100.011719 181.214844 96.761719 181.214844 92.769531 C 181.214844 88.777344 177.964844 85.527344 173.972656 85.527344 L 137.691406 85.527344 C 136.367188 85.527344 135.289062 84.449219 135.289062 83.125 C 135.289062 81.796875 136.367188 80.722656 137.691406 80.722656 L 173.972656 80.722656 C 180.613281 80.722656 186.019531 86.128906 186.019531 92.769531 C 186.019531 99.410156 180.613281 104.816406 173.972656 104.816406 Z M 123.5 104.816406 L 13.035156 104.816406 C 6.394531 104.816406 0.988281 99.410156 0.988281 92.769531 C 0.988281 86.128906 6.394531 80.722656 13.035156 80.722656 L 123.5 80.722656 C 124.828125 80.722656 125.902344 81.796875 125.902344 83.125 C 125.902344 84.449219 124.828125 85.527344 123.5 85.527344 L 13.035156 85.527344 C 9.042969 85.527344 5.792969 88.777344 5.792969 92.769531 C 5.792969 96.761719 9.042969 100.011719 13.035156 100.011719 L 123.5 100.011719 C 124.828125 100.011719 125.902344 101.089844 125.902344 102.414062 C 125.902344 103.742188 124.828125 104.816406 123.5 104.816406 Z M 123.5 104.816406 " fill-opacity="1" fill-rule="nonzero"/></g><path fill="#ee3e95" d="M 171.941406 167.453125 C 170.613281 167.453125 169.539062 166.375 169.539062 165.046875 L 169.539062 104.816406 L 159.113281 104.816406 L 159.113281 141.558594 C 159.113281 142.886719 158.035156 143.964844 156.707031 143.964844 C 155.382812 143.964844 154.304688 142.886719 154.304688 141.558594 L 154.304688 102.414062 C 154.304688 101.089844 155.382812 100.011719 156.707031 100.011719 L 171.941406 100.011719 C 173.265625 100.011719 174.34375 101.089844 174.34375 102.414062 L 174.34375 165.046875 C 174.34375 166.375 173.265625 167.453125 171.941406 167.453125 Z M 171.941406 167.453125 " fill-opacity="1" fill-rule="nonzero"/><g clip-path="url(#f47c781f93)"><path fill="#ee3e95" d="M 170.492188 172.851562 L 90.695312 172.851562 C 89.027344 172.851562 87.289062 171.953125 86.371094 170.617188 C 85.625 169.527344 85.453125 168.222656 85.90625 167.042969 L 92.335938 150.304688 C 92.691406 149.375 93.582031 148.765625 94.582031 148.765625 L 166.609375 148.765625 C 167.601562 148.765625 168.496094 149.378906 168.851562 150.304688 L 175.28125 167.042969 C 175.738281 168.226562 175.570312 169.527344 174.820312 170.617188 C 173.902344 171.953125 172.160156 172.851562 170.492188 172.851562 Z M 90.675781 168.039062 C 90.683594 168.039062 90.691406 168.039062 90.699219 168.039062 L 170.492188 168.039062 C 170.5 168.039062 170.507812 168.039062 170.519531 168.039062 L 164.960938 153.566406 L 96.234375 153.566406 Z M 90.675781 168.039062 " fill-opacity="1" fill-rule="nonzero"/></g><path fill="#ee3e95" d="M 166.609375 153.566406 C 165.28125 153.566406 164.207031 152.492188 164.207031 151.164062 L 164.207031 146.363281 C 164.207031 145.039062 163.128906 143.964844 161.808594 143.964844 L 99.382812 143.964844 C 98.058594 143.964844 96.984375 145.039062 96.984375 146.363281 L 96.984375 151.164062 C 96.984375 152.492188 95.90625 153.566406 94.582031 153.566406 C 93.253906 153.566406 92.175781 152.492188 92.175781 151.164062 L 92.175781 146.363281 C 92.175781 142.386719 95.410156 139.15625 99.382812 139.15625 L 161.808594 139.15625 C 165.777344 139.15625 169.011719 142.390625 169.011719 146.363281 L 169.011719 151.164062 C 169.011719 152.496094 167.9375 153.566406 166.609375 153.566406 Z M 166.609375 153.566406 " fill-opacity="1" fill-rule="nonzero"/><path fill="#ee3e95" d="M 145.386719 143.964844 L 115.808594 143.964844 C 114.480469 143.964844 113.402344 142.886719 113.402344 141.558594 L 113.402344 132.210938 C 113.402344 130.882812 114.480469 129.808594 115.808594 129.808594 L 145.386719 129.808594 C 146.714844 129.808594 147.789062 130.882812 147.789062 132.210938 L 147.789062 141.558594 C 147.789062 142.886719 146.714844 143.964844 145.386719 143.964844 Z M 118.207031 139.15625 L 142.980469 139.15625 L 142.980469 134.613281 L 118.207031 134.613281 Z M 118.207031 139.15625 " fill-opacity="1" fill-rule="nonzero"/><path fill="#ee3e95" d="M 140.199219 134.613281 L 120.988281 134.613281 C 119.660156 134.613281 118.585938 133.539062 118.585938 132.210938 L 118.585938 122.863281 C 118.585938 121.535156 119.660156 120.457031 120.988281 120.457031 L 140.199219 120.457031 C 141.527344 120.457031 142.605469 121.535156 142.605469 122.863281 L 142.605469 132.210938 C 142.605469 133.539062 141.527344 134.613281 140.199219 134.613281 Z M 123.390625 129.808594 L 137.796875 129.808594 L 137.796875 125.265625 L 123.390625 125.265625 Z M 123.390625 129.808594 " fill-opacity="1" fill-rule="nonzero"/><g clip-path="url(#a85e906ff6)"><path fill="#ee3e95" d="M 99.425781 172.851562 C 98.097656 172.851562 97.019531 171.773438 97.019531 170.445312 L 97.019531 162.019531 C 97.019531 160.691406 98.097656 159.617188 99.425781 159.617188 C 100.75 159.617188 101.828125 160.691406 101.828125 162.019531 L 101.828125 170.445312 C 101.828125 171.773438 100.753906 172.851562 99.425781 172.851562 Z M 99.425781 172.851562 " fill-opacity="1" fill-rule="nonzero"/></g><g clip-path="url(#2c9baa0f95)"><path fill="#ee3e95" d="M 109.816406 172.851562 C 108.488281 172.851562 107.414062 171.773438 107.414062 170.445312 L 107.414062 162.019531 C 107.414062 160.691406 108.488281 159.617188 109.816406 159.617188 C 111.144531 159.617188 112.21875 160.691406 112.21875 162.019531 L 112.21875 170.445312 C 112.21875 171.773438 111.144531 172.851562 109.816406 172.851562 Z M 109.816406 172.851562 " fill-opacity="1" fill-rule="nonzero"/></g><g clip-path="url(#27a7bdca4f)"><path fill="#ee3e95" d="M 120.203125 172.851562 C 118.878906 172.851562 117.800781 171.773438 117.800781 170.445312 L 117.800781 162.019531 C 117.800781 160.691406 118.878906 159.617188 120.203125 159.617188 C 121.53125 159.617188 122.609375 160.691406 122.609375 162.019531 L 122.609375 170.445312 C 122.609375 171.773438 121.53125 172.851562 120.203125 172.851562 Z M 120.203125 172.851562 " fill-opacity="1" fill-rule="nonzero"/></g><g clip-path="url(#b01ec1812a)"><path fill="#ee3e95" d="M 130.597656 172.851562 C 129.269531 172.851562 128.195312 171.773438 128.195312 170.445312 L 128.195312 162.019531 C 128.195312 160.691406 129.269531 159.617188 130.597656 159.617188 C 131.921875 159.617188 133 160.691406 133 162.019531 L 133 170.445312 C 133 171.773438 131.921875 172.851562 130.597656 172.851562 Z M 130.597656 172.851562 " fill-opacity="1" fill-rule="nonzero"/></g><g clip-path="url(#e8131f2d16)"><path fill="#ee3e95" d="M 140.984375 172.851562 C 139.65625 172.851562 138.582031 171.773438 138.582031 170.445312 L 138.582031 162.019531 C 138.582031 160.691406 139.65625 159.617188 140.984375 159.617188 C 142.3125 159.617188 143.386719 160.691406 143.386719 162.019531 L 143.386719 170.445312 C 143.386719 171.773438 142.3125 172.851562 140.984375 172.851562 Z M 140.984375 172.851562 " fill-opacity="1" fill-rule="nonzero"/></g><g clip-path="url(#203bb65e5b)"><path fill="#ee3e95" d="M 151.371094 172.851562 C 150.046875 172.851562 148.96875 171.773438 148.96875 170.445312 L 148.96875 162.019531 C 148.96875 160.691406 150.046875 159.617188 151.371094 159.617188 C 152.699219 159.617188 153.777344 160.691406 153.777344 162.019531 L 153.777344 170.445312 C 153.777344 171.773438 152.703125 172.851562 151.371094 172.851562 Z M 151.371094 172.851562 " fill-opacity="1" fill-rule="nonzero"/></g><g clip-path="url(#7553c8a946)"><path fill="#ee3e95" d="M 161.765625 172.851562 C 160.4375 172.851562 159.363281 171.773438 159.363281 170.445312 L 159.363281 162.019531 C 159.363281 160.691406 160.4375 159.617188 161.765625 159.617188 C 163.09375 159.617188 164.167969 160.691406 164.167969 162.019531 L 164.167969 170.445312 C 164.167969 171.773438 163.09375 172.851562 161.765625 172.851562 Z M 161.765625 172.851562 " fill-opacity="1" fill-rule="nonzero"/></g><path fill="#ee3e95" d="M 137.6875 125.265625 L 123.496094 125.265625 C 122.167969 125.265625 121.09375 124.1875 121.09375 122.863281 L 121.09375 44.089844 C 121.09375 42.765625 122.167969 41.6875 123.496094 41.6875 L 137.6875 41.6875 C 139.015625 41.6875 140.09375 42.765625 140.09375 44.089844 L 140.09375 122.863281 C 140.09375 124.1875 139.019531 125.265625 137.6875 125.265625 Z M 125.902344 120.457031 L 135.289062 120.457031 L 135.289062 46.496094 L 125.902344 46.496094 Z M 125.902344 120.457031 " fill-opacity="1" fill-rule="nonzero"/><g clip-path="url(#fdc1d62063)"><path fill="#ee3e95" d="M 30.105469 172.851562 L 14.875 172.851562 C 13.546875 172.851562 12.472656 171.773438 12.472656 170.445312 L 12.472656 102.414062 C 12.472656 101.089844 13.546875 100.011719 14.875 100.011719 L 30.105469 100.011719 C 31.433594 100.011719 32.511719 101.089844 32.511719 102.414062 L 32.511719 170.441406 C 32.511719 171.773438 31.433594 172.851562 30.105469 172.851562 Z M 17.277344 168.042969 L 27.703125 168.042969 L 27.703125 104.816406 L 17.277344 104.816406 Z M 17.277344 168.042969 " fill-opacity="1" fill-rule="nonzero"/></g><path fill="#ee3e95" d="M 75.488281 142.328125 L 30.105469 142.328125 C 28.78125 142.328125 27.703125 141.25 27.703125 139.925781 L 27.703125 102.414062 C 27.703125 101.089844 28.78125 100.011719 30.105469 100.011719 L 75.492188 100.011719 C 76.820312 100.011719 77.898438 101.089844 77.898438 102.414062 L 77.898438 139.925781 C 77.894531 141.25 76.820312 142.328125 75.488281 142.328125 Z M 32.511719 137.523438 L 73.089844 137.523438 L 73.089844 104.816406 L 32.511719 104.816406 Z M 32.511719 137.523438 " fill-opacity="1" fill-rule="nonzero"/><path fill="#ee3e95" d="M 75.488281 123.574219 L 30.105469 123.574219 C 28.78125 123.574219 27.703125 122.5 27.703125 121.171875 C 27.703125 119.84375 28.78125 118.769531 30.105469 118.769531 L 75.492188 118.769531 C 76.820312 118.769531 77.898438 119.84375 77.898438 121.171875 C 77.898438 122.5 76.820312 123.574219 75.488281 123.574219 Z M 75.488281 123.574219 " fill-opacity="1" fill-rule="nonzero"/><g clip-path="url(#1f124581b4)"><path fill="#ee3e95" d="M 100.871094 45.210938 C 100.457031 45.210938 100.042969 45.101562 99.671875 44.886719 C 98.863281 44.425781 98.402344 43.535156 98.476562 42.609375 L 99.328125 32.195312 L 93.386719 23.601562 C 92.855469 22.839844 92.820312 21.839844 93.28125 21.03125 C 93.746094 20.226562 94.628906 19.761719 95.5625 19.839844 L 105.972656 20.691406 L 114.5625 14.753906 C 115.328125 14.222656 116.328125 14.1875 117.132812 14.648438 C 117.9375 15.113281 118.402344 16 118.328125 16.925781 L 117.476562 27.339844 L 123.417969 35.933594 C 123.945312 36.699219 123.984375 37.699219 123.519531 38.503906 C 123.058594 39.308594 122.171875 39.777344 121.242188 39.699219 L 110.828125 38.847656 L 102.238281 44.789062 C 101.832031 45.066406 101.351562 45.210938 100.871094 45.210938 Z M 100.226562 25.050781 L 103.765625 30.171875 C 104.085938 30.628906 104.230469 31.183594 104.183594 31.734375 L 103.679688 37.941406 L 108.800781 34.398438 C 109.257812 34.082031 109.8125 33.933594 110.367188 33.984375 L 116.574219 34.488281 L 113.03125 29.363281 C 112.714844 28.910156 112.570312 28.355469 112.617188 27.800781 L 113.121094 21.59375 L 107.996094 25.136719 C 107.539062 25.457031 106.988281 25.605469 106.433594 25.554688 Z M 100.226562 25.050781 " fill-opacity="1" fill-rule="nonzero"/></g><path fill="#ee3e95" d="M 157.421875 65.417969 C 157.007812 65.417969 156.59375 65.308594 156.222656 65.097656 C 155.414062 64.632812 154.953125 63.746094 155.027344 62.820312 L 155.878906 52.40625 L 149.9375 43.8125 C 149.40625 43.046875 149.371094 42.046875 149.832031 41.242188 C 150.296875 40.4375 151.179688 39.96875 152.113281 40.046875 L 162.523438 40.898438 L 171.117188 34.957031 C 171.882812 34.429688 172.882812 34.390625 173.6875 34.855469 C 174.492188 35.316406 174.957031 36.207031 174.882812 37.132812 L 174.03125 47.546875 L 179.972656 56.140625 C 180.5 56.902344 180.539062 57.90625 180.074219 58.710938 C 179.613281 59.515625 178.726562 59.980469 177.796875 59.902344 L 167.386719 59.050781 L 158.789062 64.992188 C 158.378906 65.273438 157.902344 65.417969 157.421875 65.417969 Z M 156.777344 45.253906 L 160.316406 50.378906 C 160.632812 50.832031 160.78125 51.386719 160.734375 51.941406 L 160.226562 58.152344 L 165.347656 54.609375 C 165.808594 54.292969 166.359375 54.140625 166.914062 54.191406 L 173.121094 54.695312 L 169.578125 49.574219 C 169.261719 49.117188 169.117188 48.5625 169.164062 48.007812 L 169.667969 41.800781 L 164.542969 45.34375 C 164.085938 45.660156 163.535156 45.804688 162.980469 45.761719 Z M 156.777344 45.253906 " fill-opacity="1" fill-rule="nonzero"/><path fill="#ee3e95" d="M 58.296875 114.195312 L 44.53125 114.195312 C 43.203125 114.195312 42.125 113.121094 42.125 111.792969 C 42.125 110.464844 43.203125 109.390625 44.53125 109.390625 L 58.296875 109.390625 C 59.625 109.390625 60.699219 110.464844 60.699219 111.792969 C 60.699219 113.121094 59.625 114.195312 58.296875 114.195312 Z M 58.296875 114.195312 " fill-opacity="1" fill-rule="nonzero"/><path fill="#ee3e95" d="M 58.296875 132.949219 L 44.53125 132.949219 C 43.203125 132.949219 42.125 131.871094 42.125 130.546875 C 42.125 129.21875 43.203125 128.144531 44.53125 128.144531 L 58.296875 128.144531 C 59.625 128.144531 60.699219 129.21875 60.699219 130.546875 C 60.699219 131.871094 59.625 132.949219 58.296875 132.949219 Z M 58.296875 132.949219 " fill-opacity="1" fill-rule="nonzero"/></svg>