<svg xmlns="http://www.w3.org/2000/svg" xmlns:xlink="http://www.w3.org/1999/xlink" width="100" zoomAndPan="magnify" viewBox="0 0 75 74.999997" height="100" preserveAspectRatio="xMidYMid meet" version="1.0"><defs><clipPath id="d64edb5721"><path d="M 13.453125 0 L 61.453125 0 L 61.453125 75 L 13.453125 75 Z M 13.453125 0 " clip-rule="nonzero"/></clipPath><clipPath id="194711aea5"><path d="M 9 1 L 20.25 1 L 20.25 8 L 9 8 Z M 9 1 " clip-rule="nonzero"/></clipPath><clipPath id="3a847387e3"><path d="M 54.746094 1 L 66 1 L 66 8 L 54.746094 8 Z M 54.746094 1 " clip-rule="nonzero"/></clipPath><clipPath id="fc10dd9aef"><path d="M 19 31.171875 L 46 31.171875 L 46 61 L 19 61 Z M 19 31.171875 " clip-rule="nonzero"/></clipPath><clipPath id="c14b508ac5"><path d="M 44 31.171875 L 49 31.171875 L 49 49 L 44 49 Z M 44 31.171875 " clip-rule="nonzero"/></clipPath><clipPath id="923dec8c69"><path d="M 44 50 L 58.398438 50 L 58.398438 62.671875 L 44 62.671875 Z M 44 50 " clip-rule="nonzero"/></clipPath><clipPath id="4fe14c41ab"><path d="M 49 35 L 58.398438 35 L 58.398438 46 L 49 46 Z M 49 35 " clip-rule="nonzero"/></clipPath><clipPath id="cad750dc4b"><path d="M 52 44 L 58.398438 44 L 58.398438 51 L 52 51 Z M 52 44 " clip-rule="nonzero"/></clipPath><clipPath id="51c05e9ed4"><path d="M 16.398438 49 L 22 49 L 22 54 L 16.398438 54 Z M 16.398438 49 " clip-rule="nonzero"/></clipPath></defs><g clip-path="url(#d64edb5721)"><path fill="#ee3e95" d="M 54.71875 29.898438 L 37.496094 0 L 20.273438 29.898438 C 17.796875 33.972656 13.460938 43.863281 13.460938 49.09375 C 13.460938 63.402344 24.222656 75 37.496094 75 C 50.777344 75 61.539062 63.402344 61.539062 49.09375 C 61.539062 43.863281 57.195312 33.972656 54.71875 29.898438 Z M 54.71875 29.898438 " fill-opacity="1" fill-rule="nonzero"/></g><g clip-path="url(#194711aea5)"><path fill="#ee3e95" d="M 20.398438 2.921875 C 20.441406 2.917969 20.464844 2.890625 20.46875 2.847656 C 20.472656 2.804688 20.453125 2.777344 20.414062 2.761719 C 18.816406 2.207031 11.476562 0.00390625 9.546875 5.890625 C 8.820312 8.09375 11.699219 8.351562 13.417969 5.976562 C 14.890625 3.941406 19.1875 3.117188 20.398438 2.921875 Z M 20.398438 2.921875 " fill-opacity="1" fill-rule="nonzero"/></g><path fill="#fce6f3" d="M 12.140625 3.484375 C 12.007812 3.589844 11.871094 3.703125 11.746094 3.820312 C 11.617188 3.9375 11.492188 4.058594 11.375 4.183594 C 11.140625 4.425781 10.933594 4.691406 10.753906 4.980469 C 10.671875 5.117188 10.601562 5.261719 10.546875 5.414062 C 10.492188 5.554688 10.460938 5.703125 10.449219 5.851562 C 10.433594 6.140625 10.515625 6.398438 10.691406 6.628906 C 10.753906 6.703125 10.777344 6.789062 10.765625 6.886719 C 10.75 6.984375 10.707031 7.058594 10.628906 7.117188 C 10.550781 7.175781 10.464844 7.199219 10.371094 7.183594 C 10.273438 7.167969 10.199219 7.121094 10.140625 7.042969 C 10.132812 7.035156 10.128906 7.023438 10.121094 7.015625 L 10.121094 7.011719 C 10.0625 6.921875 10.015625 6.824219 9.972656 6.726562 C 9.933594 6.625 9.902344 6.523438 9.878906 6.417969 C 9.835938 6.207031 9.832031 5.992188 9.871094 5.78125 C 9.90625 5.578125 9.96875 5.386719 10.0625 5.203125 C 10.148438 5.03125 10.25 4.867188 10.371094 4.714844 C 10.597656 4.417969 10.867188 4.164062 11.148438 3.933594 C 11.429688 3.707031 11.730469 3.507812 12.046875 3.332031 C 12.09375 3.304688 12.132812 3.316406 12.164062 3.363281 C 12.195312 3.410156 12.1875 3.449219 12.144531 3.484375 Z M 12.140625 3.484375 " fill-opacity="1" fill-rule="nonzero"/><path fill="#ee3e95" d="M 8.324219 10.574219 C 8.378906 10.535156 8.394531 10.480469 8.367188 10.414062 C 8.335938 10.351562 8.289062 10.324219 8.21875 10.339844 C 6.511719 10.683594 2.101562 11.855469 2.089844 14.621094 C 2.070312 17.703125 5.6875 16.429688 5.515625 14.386719 C 5.402344 13.074219 7.261719 11.367188 8.324219 10.574219 Z M 8.324219 10.574219 " fill-opacity="1" fill-rule="nonzero"/><path fill="#fce6f3" d="M 4.078125 12.449219 C 4.019531 12.503906 3.960938 12.558594 3.90625 12.617188 C 3.847656 12.675781 3.792969 12.734375 3.742188 12.792969 C 3.636719 12.910156 3.535156 13.039062 3.445312 13.167969 C 3.355469 13.296875 3.273438 13.429688 3.203125 13.570312 C 3.132812 13.703125 3.078125 13.84375 3.035156 13.992188 C 2.996094 14.132812 2.976562 14.273438 2.976562 14.417969 C 2.976562 14.558594 2.996094 14.695312 3.039062 14.828125 L 3.050781 14.878906 C 3.058594 14.894531 3.066406 14.910156 3.070312 14.925781 C 3.085938 14.960938 3.097656 14.992188 3.113281 15.023438 L 3.171875 15.140625 C 3.175781 15.144531 3.183594 15.152344 3.1875 15.160156 L 3.214844 15.207031 C 3.296875 15.328125 3.382812 15.441406 3.484375 15.546875 L 3.496094 15.558594 C 3.542969 15.609375 3.566406 15.671875 3.5625 15.746094 C 3.558594 15.820312 3.53125 15.878906 3.476562 15.925781 C 3.421875 15.976562 3.359375 15.996094 3.285156 15.992188 C 3.214844 15.984375 3.152344 15.953125 3.105469 15.898438 C 3.078125 15.867188 3.046875 15.832031 3.019531 15.796875 C 2.988281 15.765625 2.960938 15.730469 2.933594 15.691406 L 2.855469 15.582031 L 2.839844 15.550781 L 2.820312 15.523438 L 2.785156 15.464844 C 2.742188 15.382812 2.699219 15.300781 2.667969 15.214844 C 2.648438 15.171875 2.636719 15.128906 2.621094 15.082031 C 2.613281 15.0625 2.605469 15.039062 2.601562 15.015625 L 2.585938 14.949219 C 2.566406 14.855469 2.550781 14.765625 2.546875 14.671875 L 2.546875 14.53125 C 2.546875 14.484375 2.554688 14.4375 2.554688 14.394531 C 2.578125 14.214844 2.625 14.039062 2.699219 13.871094 C 2.765625 13.710938 2.851562 13.5625 2.953125 13.417969 C 3.054688 13.28125 3.160156 13.152344 3.28125 13.03125 C 3.398438 12.910156 3.519531 12.800781 3.652344 12.699219 C 3.78125 12.59375 3.914062 12.5 4.058594 12.417969 C 4.066406 12.410156 4.078125 12.414062 4.082031 12.421875 C 4.089844 12.433594 4.089844 12.441406 4.082031 12.449219 Z M 4.078125 12.449219 " fill-opacity="1" fill-rule="nonzero"/><path fill="#ee3e95" d="M 5.542969 18.113281 C 5.566406 18.070312 5.558594 18.035156 5.519531 18.007812 C 5.480469 17.976562 5.441406 17.980469 5.410156 18.019531 C 3.871094 19.730469 0 24.601562 2.203125 28.085938 C 3.414062 29.996094 5.652344 28.792969 5.273438 26.691406 C 4.917969 24.730469 3.636719 21.503906 5.542969 18.113281 Z M 5.542969 18.113281 " fill-opacity="1" fill-rule="nonzero"/><path fill="#fce6f3" d="M 2.785156 22.742188 C 2.75 22.863281 2.71875 22.984375 2.691406 23.109375 C 2.660156 23.230469 2.632812 23.355469 2.609375 23.480469 C 2.5625 23.726562 2.519531 23.976562 2.488281 24.226562 C 2.457031 24.476562 2.4375 24.722656 2.429688 24.972656 C 2.417969 25.21875 2.421875 25.464844 2.441406 25.710938 C 2.460938 25.949219 2.496094 26.183594 2.554688 26.417969 C 2.582031 26.53125 2.617188 26.644531 2.65625 26.753906 C 2.695312 26.859375 2.742188 26.960938 2.792969 27.0625 C 2.894531 27.261719 3.023438 27.4375 3.179688 27.59375 C 3.257812 27.667969 3.339844 27.738281 3.429688 27.800781 C 3.519531 27.863281 3.613281 27.917969 3.710938 27.96875 L 3.714844 27.972656 C 3.800781 28.015625 3.855469 28.085938 3.882812 28.175781 C 3.910156 28.265625 3.902344 28.355469 3.859375 28.4375 C 3.8125 28.523438 3.746094 28.578125 3.65625 28.605469 C 3.566406 28.636719 3.476562 28.625 3.394531 28.582031 C 3.265625 28.515625 3.140625 28.4375 3.023438 28.351562 C 2.90625 28.261719 2.800781 28.164062 2.699219 28.054688 C 2.597656 27.949219 2.511719 27.835938 2.433594 27.710938 C 2.355469 27.589844 2.285156 27.460938 2.226562 27.332031 C 2.171875 27.199219 2.125 27.066406 2.085938 26.929688 C 2.050781 26.796875 2.019531 26.664062 2 26.527344 C 1.960938 26.257812 1.949219 25.988281 1.957031 25.71875 C 1.96875 25.453125 1.992188 25.191406 2.035156 24.929688 C 2.078125 24.671875 2.136719 24.417969 2.203125 24.171875 C 2.269531 23.921875 2.351562 23.675781 2.4375 23.433594 C 2.527344 23.191406 2.625 22.953125 2.734375 22.722656 C 2.742188 22.707031 2.753906 22.703125 2.765625 22.707031 C 2.78125 22.714844 2.789062 22.722656 2.785156 22.738281 Z M 2.785156 22.742188 " fill-opacity="1" fill-rule="nonzero"/><path fill="#ee3e95" d="M 16.324219 8.753906 C 16.417969 8.640625 16.273438 8.484375 16.152344 8.566406 C 13.472656 10.398438 5.339844 16.601562 7.261719 23.246094 C 8.289062 26.785156 12.328125 25.917969 12.691406 22.464844 C 13.03125 19.199219 12.6875 13.132812 16.324219 8.753906 Z M 16.324219 8.753906 " fill-opacity="1" fill-rule="nonzero"/><path fill="#fce6f3" d="M 10.59375 15.167969 C 10.484375 15.339844 10.378906 15.519531 10.28125 15.699219 C 10.179688 15.882812 10.078125 16.0625 9.988281 16.242188 C 9.796875 16.609375 9.621094 16.976562 9.460938 17.355469 C 9.300781 17.730469 9.152344 18.109375 9.027344 18.492188 C 8.964844 18.683594 8.90625 18.875 8.855469 19.070312 C 8.800781 19.261719 8.753906 19.453125 8.714844 19.648438 C 8.632812 20.03125 8.585938 20.417969 8.570312 20.808594 C 8.5625 20.996094 8.566406 21.183594 8.578125 21.375 C 8.589844 21.558594 8.613281 21.742188 8.648438 21.925781 C 8.683594 22.101562 8.734375 22.273438 8.796875 22.445312 C 8.855469 22.609375 8.929688 22.769531 9.015625 22.925781 C 9.101562 23.078125 9.199219 23.226562 9.308594 23.363281 C 9.417969 23.5 9.539062 23.632812 9.667969 23.753906 L 9.675781 23.761719 C 9.785156 23.867188 9.84375 24 9.847656 24.152344 C 9.847656 24.308594 9.796875 24.441406 9.6875 24.550781 C 9.582031 24.664062 9.453125 24.71875 9.296875 24.722656 C 9.144531 24.726562 9.011719 24.671875 8.898438 24.566406 C 8.726562 24.402344 8.570312 24.226562 8.425781 24.039062 C 8.285156 23.847656 8.160156 23.644531 8.054688 23.429688 C 7.839844 23.003906 7.707031 22.554688 7.644531 22.085938 C 7.617188 21.855469 7.605469 21.628906 7.605469 21.398438 C 7.609375 21.171875 7.625 20.945312 7.65625 20.722656 C 7.71875 20.289062 7.816406 19.863281 7.953125 19.441406 C 8.089844 19.035156 8.25 18.640625 8.433594 18.253906 C 8.617188 17.871094 8.824219 17.5 9.042969 17.140625 C 9.257812 16.78125 9.496094 16.429688 9.742188 16.09375 C 9.988281 15.757812 10.246094 15.429688 10.527344 15.117188 C 10.542969 15.097656 10.5625 15.09375 10.585938 15.113281 C 10.605469 15.128906 10.609375 15.144531 10.59375 15.167969 Z M 10.59375 15.167969 " fill-opacity="1" fill-rule="nonzero"/><g clip-path="url(#3a847387e3)"><path fill="#ee3e95" d="M 54.597656 2.921875 C 54.554688 2.917969 54.53125 2.890625 54.527344 2.847656 C 54.523438 2.804688 54.542969 2.777344 54.582031 2.761719 C 56.179688 2.207031 63.519531 0.00390625 65.453125 5.890625 C 66.175781 8.09375 63.300781 8.351562 61.578125 5.976562 C 60.105469 3.941406 55.808594 3.117188 54.597656 2.921875 Z M 54.597656 2.921875 " fill-opacity="1" fill-rule="nonzero"/></g><path fill="#fce6f3" d="M 62.855469 3.484375 C 62.992188 3.589844 63.125 3.703125 63.253906 3.820312 C 63.378906 3.9375 63.503906 4.058594 63.621094 4.183594 C 63.859375 4.425781 64.066406 4.691406 64.242188 4.980469 C 64.328125 5.117188 64.398438 5.261719 64.453125 5.414062 C 64.503906 5.554688 64.535156 5.703125 64.546875 5.851562 C 64.5625 6.140625 64.484375 6.398438 64.304688 6.628906 C 64.246094 6.703125 64.222656 6.789062 64.234375 6.886719 C 64.246094 6.984375 64.289062 7.058594 64.367188 7.117188 C 64.445312 7.175781 64.53125 7.199219 64.628906 7.183594 C 64.722656 7.167969 64.800781 7.121094 64.855469 7.042969 C 64.863281 7.035156 64.871094 7.023438 64.875 7.015625 L 64.878906 7.011719 C 64.933594 6.921875 64.980469 6.824219 65.023438 6.726562 C 65.0625 6.625 65.09375 6.523438 65.117188 6.417969 C 65.160156 6.207031 65.164062 5.992188 65.128906 5.78125 C 65.09375 5.578125 65.027344 5.386719 64.9375 5.203125 C 64.847656 5.03125 64.746094 4.867188 64.628906 4.714844 C 64.398438 4.417969 64.128906 4.164062 63.851562 3.933594 C 63.566406 3.707031 63.269531 3.507812 62.953125 3.332031 C 62.902344 3.304688 62.863281 3.316406 62.832031 3.363281 C 62.804688 3.410156 62.808594 3.449219 62.851562 3.484375 Z M 62.855469 3.484375 " fill-opacity="1" fill-rule="nonzero"/><path fill="#ee3e95" d="M 66.675781 10.574219 C 66.617188 10.535156 66.601562 10.480469 66.632812 10.414062 C 66.660156 10.351562 66.710938 10.324219 66.78125 10.339844 C 68.484375 10.683594 72.894531 11.855469 72.910156 14.621094 C 72.925781 17.703125 69.308594 16.429688 69.484375 14.386719 C 69.59375 13.074219 67.738281 11.367188 66.675781 10.574219 Z M 66.675781 10.574219 " fill-opacity="1" fill-rule="nonzero"/><path fill="#fce6f3" d="M 70.917969 12.449219 C 70.976562 12.503906 71.035156 12.558594 71.09375 12.617188 C 71.148438 12.675781 71.203125 12.734375 71.257812 12.792969 C 71.363281 12.910156 71.460938 13.039062 71.550781 13.167969 C 71.644531 13.296875 71.722656 13.429688 71.792969 13.570312 C 71.863281 13.703125 71.921875 13.84375 71.960938 13.992188 C 72 14.132812 72.019531 14.273438 72.019531 14.417969 C 72.023438 14.558594 72.003906 14.695312 71.960938 14.828125 L 71.945312 14.878906 C 71.941406 14.894531 71.933594 14.910156 71.925781 14.925781 C 71.914062 14.960938 71.902344 14.992188 71.886719 15.023438 L 71.835938 15.117188 L 71.824219 15.140625 C 71.820312 15.144531 71.816406 15.152344 71.8125 15.160156 L 71.78125 15.207031 C 71.703125 15.328125 71.613281 15.441406 71.515625 15.546875 L 71.503906 15.558594 C 71.453125 15.609375 71.429688 15.671875 71.433594 15.746094 C 71.4375 15.820312 71.46875 15.878906 71.523438 15.925781 C 71.574219 15.976562 71.640625 15.996094 71.710938 15.992188 C 71.785156 15.984375 71.84375 15.953125 71.890625 15.898438 C 71.917969 15.867188 71.949219 15.832031 71.976562 15.796875 C 72.007812 15.765625 72.035156 15.730469 72.0625 15.691406 L 72.140625 15.582031 L 72.160156 15.550781 L 72.175781 15.523438 L 72.210938 15.464844 C 72.257812 15.382812 72.296875 15.300781 72.332031 15.214844 C 72.347656 15.171875 72.359375 15.128906 72.375 15.082031 C 72.382812 15.0625 72.390625 15.039062 72.398438 15.015625 L 72.414062 14.949219 C 72.433594 14.855469 72.445312 14.765625 72.453125 14.671875 L 72.453125 14.53125 C 72.453125 14.484375 72.445312 14.4375 72.441406 14.394531 C 72.417969 14.214844 72.371094 14.039062 72.300781 13.871094 C 72.230469 13.710938 72.144531 13.5625 72.042969 13.417969 C 71.945312 13.28125 71.835938 13.152344 71.71875 13.03125 C 71.601562 12.910156 71.476562 12.800781 71.347656 12.699219 C 71.21875 12.59375 71.082031 12.5 70.941406 12.417969 C 70.929688 12.410156 70.921875 12.414062 70.914062 12.421875 C 70.90625 12.433594 70.910156 12.441406 70.917969 12.449219 Z M 70.917969 12.449219 " fill-opacity="1" fill-rule="nonzero"/><path fill="#ee3e95" d="M 69.453125 18.113281 C 69.429688 18.070312 69.4375 18.035156 69.480469 18.007812 C 69.519531 17.976562 69.554688 17.980469 69.589844 18.019531 C 71.125 19.730469 74.996094 24.601562 72.796875 28.085938 C 71.582031 29.996094 69.347656 28.792969 69.722656 26.691406 C 70.078125 24.730469 71.363281 21.503906 69.453125 18.113281 Z M 69.453125 18.113281 " fill-opacity="1" fill-rule="nonzero"/><path fill="#fce6f3" d="M 72.210938 22.742188 C 72.246094 22.863281 72.277344 22.984375 72.308594 23.109375 C 72.335938 23.230469 72.363281 23.355469 72.386719 23.480469 C 72.4375 23.726562 72.480469 23.976562 72.507812 24.226562 C 72.539062 24.476562 72.5625 24.722656 72.570312 24.972656 C 72.578125 25.21875 72.574219 25.464844 72.554688 25.710938 C 72.539062 25.949219 72.5 26.183594 72.441406 26.417969 C 72.414062 26.53125 72.378906 26.644531 72.339844 26.753906 C 72.300781 26.859375 72.253906 26.960938 72.203125 27.0625 C 72.101562 27.261719 71.972656 27.4375 71.816406 27.59375 C 71.738281 27.667969 71.65625 27.738281 71.566406 27.800781 C 71.480469 27.863281 71.386719 27.917969 71.289062 27.96875 L 71.28125 27.972656 C 71.199219 28.015625 71.140625 28.085938 71.113281 28.175781 C 71.085938 28.265625 71.09375 28.355469 71.140625 28.4375 C 71.183594 28.523438 71.25 28.578125 71.34375 28.605469 C 71.433594 28.636719 71.519531 28.625 71.605469 28.582031 C 71.734375 28.515625 71.855469 28.4375 71.972656 28.351562 C 72.089844 28.261719 72.199219 28.164062 72.296875 28.054688 C 72.398438 27.949219 72.488281 27.835938 72.566406 27.710938 C 72.644531 27.589844 72.710938 27.460938 72.769531 27.332031 C 72.824219 27.199219 72.871094 27.066406 72.910156 26.929688 C 72.949219 26.796875 72.976562 26.664062 72.996094 26.527344 C 73.035156 26.257812 73.050781 25.988281 73.039062 25.71875 C 73.03125 25.453125 73.003906 25.191406 72.960938 24.929688 C 72.917969 24.671875 72.859375 24.417969 72.792969 24.171875 C 72.726562 23.921875 72.648438 23.675781 72.558594 23.433594 C 72.472656 23.191406 72.375 22.953125 72.261719 22.722656 C 72.253906 22.707031 72.246094 22.703125 72.230469 22.707031 C 72.214844 22.714844 72.210938 22.722656 72.214844 22.738281 Z M 72.210938 22.742188 " fill-opacity="1" fill-rule="nonzero"/><path fill="#ee3e95" d="M 58.675781 8.753906 C 58.578125 8.640625 58.722656 8.484375 58.84375 8.566406 C 61.523438 10.398438 69.660156 16.601562 67.734375 23.246094 C 66.710938 26.785156 62.667969 25.917969 62.308594 22.464844 C 61.964844 19.199219 62.3125 13.132812 58.675781 8.753906 Z M 58.675781 8.753906 " fill-opacity="1" fill-rule="nonzero"/><path fill="#fce6f3" d="M 64.402344 15.167969 C 64.511719 15.339844 64.617188 15.519531 64.71875 15.699219 C 64.820312 15.882812 64.917969 16.0625 65.011719 16.242188 C 65.199219 16.609375 65.378906 16.976562 65.539062 17.355469 C 65.699219 17.730469 65.84375 18.109375 65.96875 18.492188 C 66.035156 18.683594 66.089844 18.875 66.144531 19.070312 C 66.195312 19.261719 66.242188 19.453125 66.285156 19.648438 C 66.363281 20.03125 66.414062 20.417969 66.425781 20.808594 C 66.433594 20.996094 66.433594 21.183594 66.417969 21.375 C 66.40625 21.558594 66.382812 21.742188 66.347656 21.925781 C 66.3125 22.101562 66.265625 22.273438 66.203125 22.445312 C 66.140625 22.609375 66.070312 22.769531 65.984375 22.925781 C 65.898438 23.078125 65.800781 23.226562 65.691406 23.363281 C 65.578125 23.5 65.457031 23.632812 65.328125 23.753906 L 65.320312 23.761719 C 65.210938 23.867188 65.15625 24 65.152344 24.152344 C 65.148438 24.308594 65.203125 24.441406 65.308594 24.550781 C 65.414062 24.664062 65.546875 24.71875 65.699219 24.722656 C 65.855469 24.726562 65.988281 24.671875 66.097656 24.566406 C 66.269531 24.402344 66.425781 24.226562 66.570312 24.039062 C 66.710938 23.847656 66.835938 23.644531 66.945312 23.429688 C 67.15625 23.003906 67.292969 22.554688 67.351562 22.085938 C 67.378906 21.855469 67.394531 21.628906 67.390625 21.398438 C 67.386719 21.171875 67.371094 20.945312 67.34375 20.722656 C 67.28125 20.289062 67.179688 19.863281 67.042969 19.441406 C 66.910156 19.035156 66.75 18.640625 66.5625 18.253906 C 66.378906 17.871094 66.175781 17.5 65.957031 17.140625 C 65.738281 16.78125 65.503906 16.429688 65.257812 16.09375 C 65.007812 15.757812 64.75 15.429688 64.472656 15.117188 C 64.453125 15.097656 64.433594 15.09375 64.414062 15.113281 C 64.390625 15.128906 64.390625 15.144531 64.402344 15.167969 Z M 64.402344 15.167969 " fill-opacity="1" fill-rule="nonzero"/><g clip-path="url(#fc10dd9aef)"><path fill="#3b7bbe" d="M 25.398438 58.945312 L 25.398438 46.0625 L 32.25 46.0625 L 32.25 58.945312 Z M 34.675781 54.589844 C 34.675781 54.21875 34.976562 53.921875 35.34375 53.921875 L 41.890625 53.921875 C 42.261719 53.921875 42.5625 54.21875 42.5625 54.589844 C 42.5625 54.957031 42.261719 55.257812 41.890625 55.257812 L 35.34375 55.257812 C 34.976562 55.257812 34.675781 54.957031 34.675781 54.589844 Z M 35.21875 49.863281 L 38.21875 49.863281 L 38.21875 52.859375 L 35.21875 52.859375 Z M 38.21875 46.085938 L 38.21875 49.058594 L 35.242188 49.058594 C 35.425781 47.503906 36.660156 46.269531 38.21875 46.085938 Z M 41.023438 47.058594 C 41.546875 47.582031 41.902344 48.28125 41.992188 49.058594 L 39.019531 49.058594 L 39.019531 46.085938 C 39.796875 46.175781 40.496094 46.53125 41.023438 47.058594 Z M 39.019531 49.863281 L 42.015625 49.863281 L 42.015625 52.859375 L 39.019531 52.859375 Z M 44.171875 53.664062 C 44.1875 53.628906 44.390625 53.089844 44.792969 52.460938 L 44.792969 45.527344 L 45.917969 45.527344 L 45.335938 41.453125 L 34.449219 31.515625 C 34.183594 31.277344 33.777344 31.277344 33.511719 31.515625 L 19.480469 44.320312 C 19.011719 44.75 19.3125 45.527344 19.945312 45.527344 L 23.171875 45.527344 L 23.171875 58.945312 L 20.378906 58.945312 C 19.957031 58.945312 19.613281 59.289062 19.613281 59.710938 C 19.613281 60.132812 19.957031 60.476562 20.378906 60.476562 L 45.179688 60.476562 C 44.84375 59.996094 44.5625 59.484375 44.339844 58.945312 C 43.648438 57.261719 43.546875 55.351562 44.171875 53.664062 " fill-opacity="1" fill-rule="nonzero"/></g><path fill="#3b7bbe" d="M 31.089844 51.976562 C 30.800781 51.976562 30.566406 52.214844 30.566406 52.503906 C 30.566406 52.792969 30.800781 53.027344 31.089844 53.027344 C 31.382812 53.027344 31.617188 52.792969 31.617188 52.503906 C 31.617188 52.214844 31.382812 51.976562 31.089844 51.976562 " fill-opacity="1" fill-rule="nonzero"/><g clip-path="url(#c14b508ac5)"><path fill="#3b7bbe" d="M 46.183594 42.226562 L 46.652344 45.527344 L 47.007812 48.015625 L 48.976562 47.695312 L 48.535156 45.292969 L 48.335938 44.1875 L 46.054688 31.707031 C 45.996094 31.394531 45.714844 31.171875 45.394531 31.171875 C 45.367188 31.171875 45.339844 31.171875 45.308594 31.175781 C 45.125 31.199219 44.960938 31.292969 44.847656 31.4375 C 44.742188 31.578125 44.695312 31.75 44.71875 31.921875 L 46.183594 42.226562 " fill-opacity="1" fill-rule="nonzero"/></g><g clip-path="url(#923dec8c69)"><path fill="#3b7bbe" d="M 55.402344 57.816406 C 55.191406 57.414062 54.183594 55.40625 53.4375 53.609375 L 53.433594 53.601562 C 53.367188 53.441406 53.210938 53.066406 52.902344 52.640625 C 52.632812 52.269531 52.164062 51.742188 51.441406 51.339844 C 51.203125 51.203125 50.953125 51.089844 50.691406 51 C 50.320312 50.988281 49.945312 50.996094 49.570312 51.019531 C 49.1875 51.046875 48.804688 51.089844 48.425781 51.15625 C 48.113281 51.210938 47.804688 51.277344 47.496094 51.359375 C 47.132812 51.453125 46.773438 51.566406 46.425781 51.695312 C 45.394531 52.496094 44.863281 53.90625 44.855469 53.917969 C 44.832031 53.984375 44.8125 54.046875 44.792969 54.109375 C 44.371094 55.375 44.394531 56.761719 44.792969 58.050781 C 44.882812 58.355469 45 58.65625 45.132812 58.945312 C 45.386719 59.492188 45.710938 60.007812 46.097656 60.476562 C 46.394531 60.832031 46.726562 61.160156 47.09375 61.449219 C 48.25 62.359375 49.6875 62.867188 51.144531 62.917969 C 49.851562 62.195312 49.207031 61.039062 48.933594 60.402344 L 48.261719 58.824219 L 49.519531 59.988281 C 50.15625 60.578125 51.511719 61.605469 53.449219 61.871094 C 53.972656 61.945312 54.496094 61.957031 55.019531 61.910156 C 54.847656 61.835938 54.679688 61.753906 54.515625 61.664062 C 53.644531 61.183594 52.921875 60.488281 52.359375 59.597656 C 52.042969 59.089844 51.78125 58.519531 51.605469 57.949219 L 51.101562 56.320312 L 52.226562 57.601562 C 52.914062 58.382812 54.101562 59.453125 55.84375 60.121094 C 56.542969 60.386719 57.265625 60.566406 58.003906 60.65625 C 56.835938 59.839844 55.960938 58.890625 55.402344 57.816406 " fill-opacity="1" fill-rule="nonzero"/></g><path fill="#3b7bbe" d="M 49.863281 48.609375 C 49.824219 48.453125 49.683594 48.347656 49.53125 48.347656 C 49.511719 48.347656 49.492188 48.351562 49.472656 48.355469 L 49.46875 48.355469 L 49.105469 48.414062 L 47.109375 48.738281 L 46.75 48.796875 L 46.746094 48.796875 C 46.566406 48.828125 46.441406 48.984375 46.457031 49.164062 L 46.476562 49.46875 L 46.566406 50.726562 L 46.578125 50.867188 C 46.636719 50.847656 46.691406 50.832031 46.75 50.8125 C 46.875 50.773438 46.996094 50.738281 47.121094 50.703125 C 47.265625 50.664062 47.410156 50.625 47.554688 50.589844 C 47.800781 50.53125 48.050781 50.480469 48.304688 50.4375 C 48.625 50.382812 48.949219 50.339844 49.273438 50.3125 C 49.421875 50.296875 49.570312 50.289062 49.71875 50.28125 C 49.847656 50.273438 49.976562 50.269531 50.105469 50.269531 C 50.164062 50.265625 50.226562 50.265625 50.289062 50.265625 L 50.25 50.125 L 49.9375 48.90625 L 49.863281 48.609375 " fill-opacity="1" fill-rule="nonzero"/><g clip-path="url(#4fe14c41ab)"><path fill="#3b7bbe" d="M 53.824219 45.140625 C 54.382812 41.390625 54.832031 40.9375 58.585938 40.378906 C 54.832031 39.820312 54.382812 39.367188 53.824219 35.617188 C 53.265625 39.367188 52.8125 39.820312 49.0625 40.378906 C 52.8125 40.9375 53.265625 41.390625 53.824219 45.140625 " fill-opacity="1" fill-rule="nonzero"/></g><g clip-path="url(#cad750dc4b)"><path fill="#3b7bbe" d="M 55.703125 44.335938 C 55.367188 46.605469 55.09375 46.878906 52.824219 47.214844 C 55.09375 47.554688 55.367188 47.828125 55.703125 50.097656 C 56.042969 47.828125 56.316406 47.554688 58.585938 47.214844 C 56.316406 46.878906 56.042969 46.605469 55.703125 44.335938 " fill-opacity="1" fill-rule="nonzero"/></g><g clip-path="url(#51c05e9ed4)"><path fill="#3b7bbe" d="M 18.773438 49.257812 C 18.496094 51.117188 18.269531 51.34375 16.410156 51.617188 C 18.269531 51.894531 18.496094 52.121094 18.773438 53.980469 C 19.046875 52.121094 19.273438 51.894531 21.132812 51.617188 C 19.273438 51.34375 19.046875 51.117188 18.773438 49.257812 " fill-opacity="1" fill-rule="nonzero"/></g></svg>