<svg xmlns="http://www.w3.org/2000/svg" xmlns:xlink="http://www.w3.org/1999/xlink" width="250" zoomAndPan="magnify" viewBox="0 0 187.5 187.499992" height="250" preserveAspectRatio="xMidYMid meet" version="1.0"><defs><filter x="0%" y="0%" width="100%" height="100%" id="29955d06ca"><feColorMatrix values="0 0 0 0 1 0 0 0 0 1 0 0 0 0 1 0 0 0 1 0" color-interpolation-filters="sRGB"/></filter><mask id="07cb32a5a8"><g filter="url(#29955d06ca)"><rect x="-18.75" width="225" fill="#000000" y="-18.749999" height="224.99999" fill-opacity="0.2"/></g></mask><clipPath id="06d35185d7"><path d="M 1 1.359375 L 184 1.359375 L 184 150.960938 L 1 150.960938 Z M 1 1.359375 " clip-rule="nonzero"/></clipPath><clipPath id="2dabecbca1"><rect x="0" width="185" y="0" height="152"/></clipPath><clipPath id="fd142362ee"><path d="M 2.828125 13 L 183.847656 13 L 183.847656 173.976562 L 2.828125 173.976562 Z M 2.828125 13 " clip-rule="nonzero"/></clipPath></defs><g mask="url(#07cb32a5a8)"><g transform="matrix(1, 0, 0, 1, 1, 17)"><g clip-path="url(#2dabecbca1)"><g clip-path="url(#06d35185d7)"><path fill="#3b7bbe" d="M 54.054688 1.46875 C 58.808594 1.359375 66.925781 3.554688 74.785156 6.882812 C 76.46875 7.574219 78.148438 8.234375 79.757812 9.039062 C 86.449219 12.4375 93.359375 12.402344 100.417969 10.535156 C 104.253906 9.511719 107.984375 8.085938 111.859375 7.246094 C 116.46875 6.257812 121.074219 5.96875 125.679688 7.320312 C 132.261719 9.292969 137.308594 13.390625 140.925781 19.09375 C 146.996094 28.5625 149.042969 38.910156 147.835938 50.058594 C 147.179688 55.910156 145.972656 61.652344 145.425781 67.5 C 144.730469 74.996094 147.324219 80.992188 152.917969 85.890625 C 157.304688 89.695312 162.207031 92.800781 166.886719 96.203125 C 171.089844 99.273438 175.113281 102.527344 178.183594 106.804688 C 184.472656 115.617188 185.898438 124.976562 180.707031 134.8125 C 178.074219 139.820312 173.832031 143.183594 168.75 145.488281 C 162.5 148.339844 155.878906 149.144531 149.042969 148.851562 C 135.039062 148.265625 122.71875 143.148438 111.164062 135.578125 C 108.128906 133.605469 105.023438 131.703125 101.734375 130.167969 C 92.117188 125.632812 82.828125 126.402344 73.871094 131.957031 C 69.8125 134.480469 66.265625 137.625 62.613281 140.660156 C 58.808594 143.839844 54.933594 146.839844 50.398438 148.851562 C 46.597656 150.53125 42.648438 151.300781 38.554688 150.386719 C 33.253906 149.253906 29.414062 146.109375 26.925781 141.28125 C 23.855469 135.285156 23.378906 128.886719 24.148438 122.34375 C 24.878906 115.945312 26.78125 109.839844 28.863281 103.804688 C 30.730469 98.433594 32.628906 93.019531 33.472656 87.351562 C 33.984375 83.988281 34.054688 80.625 33.542969 77.261719 C 32.703125 71.816406 29.851562 67.464844 25.574219 64.0625 C 22.796875 61.832031 19.796875 60.003906 16.761719 58.105469 C 13.910156 56.3125 11.097656 54.449219 8.609375 52.144531 C 0.929688 44.976562 -0.898438 36.386719 3.34375 26.734375 C 7.257812 17.847656 13.984375 11.742188 22.648438 7.683594 C 31.351562 3.589844 40.601562 1.617188 54.054688 1.46875 Z M 54.054688 1.46875 " fill-opacity="1" fill-rule="nonzero"/></g></g></g></g><g clip-path="url(#fd142362ee)"><path fill="#ee3e95" d="M 52.644531 137.542969 C 54.675781 140.421875 57.332031 142.492188 60.308594 143.371094 C 61.125 143.609375 61.125 144.769531 60.3125 145.007812 C 53.601562 146.980469 49.476562 154.507812 48.695312 161.582031 C 48.582031 162.589844 47.113281 162.589844 47 161.589844 C 46.175781 154.480469 42.105469 146.96875 35.386719 145.007812 C 34.570312 144.769531 34.566406 143.613281 35.378906 143.371094 C 42.089844 141.398438 46.21875 133.875 46.996094 126.800781 C 47.109375 125.792969 48.578125 125.789062 48.695312 126.792969 C 49.175781 130.925781 50.59375 134.640625 52.644531 137.542969 Z M 170.023438 110.441406 C 169.1875 117.566406 165.148438 125.03125 158.40625 127.011719 C 157.59375 127.25 157.59375 128.410156 158.410156 128.648438 C 165.132812 130.609375 169.203125 138.121094 170.023438 145.226562 C 170.140625 146.230469 171.609375 146.230469 171.722656 145.21875 C 172.5 138.144531 176.628906 130.621094 183.339844 128.648438 C 184.152344 128.410156 184.152344 127.25 183.332031 127.011719 C 176.613281 125.050781 172.539062 117.539062 171.71875 110.433594 C 171.601562 109.421875 170.128906 109.4375 170.023438 110.441406 Z M 114.417969 57.820312 C 114.996094 52.589844 117.773438 46.625 122.644531 45.101562 C 123.984375 44.679688 123.976562 42.78125 122.644531 42.367188 C 117.773438 40.839844 114.980469 34.859375 114.417969 29.628906 C 114.234375 27.933594 111.742188 27.933594 111.566406 29.644531 C 111.039062 34.832031 108.183594 40.851562 103.34375 42.367188 C 102.003906 42.785156 102.011719 44.683594 103.34375 45.101562 C 108.214844 46.628906 111.007812 52.605469 111.570312 57.835938 C 111.753906 59.546875 114.261719 59.519531 114.417969 57.820312 Z M 140.773438 43.054688 C 143.355469 46.429688 145.136719 50.746094 145.746094 55.546875 C 145.953125 57.203125 148.382812 57.203125 148.582031 55.527344 C 149.601562 47.007812 154.976562 38.519531 163.191406 36.289062 C 164.597656 35.90625 164.597656 33.894531 163.175781 33.515625 C 154.972656 31.324219 149.664062 22.839844 148.582031 14.265625 C 148.371094 12.605469 145.941406 12.605469 145.742188 14.28125 C 144.722656 22.800781 139.347656 31.289062 131.136719 33.519531 C 129.730469 33.902344 129.726562 35.914062 131.148438 36.292969 C 134.890625 37.3125 138.222656 39.71875 140.773438 43.054688 Z M 115.796875 82.5 L 180.753906 82.5 C 180.9375 82.5 181.089844 82.363281 181.109375 82.179688 L 182.171875 72.636719 C 182.195312 72.421875 182.03125 72.238281 181.816406 72.238281 L 114.734375 72.238281 C 114.519531 72.238281 114.351562 72.425781 114.378906 72.636719 L 115.441406 82.179688 C 115.460938 82.363281 115.613281 82.5 115.796875 82.5 Z M 20.015625 37.867188 L 20.015625 168.3125 C 20.015625 168.511719 19.851562 168.671875 19.65625 168.671875 L 5.519531 168.671875 C 4.035156 168.671875 2.832031 169.875 2.832031 171.363281 C 2.832031 172.847656 4.035156 174.050781 5.519531 174.050781 L 170.871094 174.050781 C 172.359375 174.050781 173.5625 172.847656 173.5625 171.363281 C 173.5625 169.875 172.359375 168.671875 170.871094 168.671875 L 151.324219 168.671875 C 151.125 168.671875 150.964844 168.511719 150.964844 168.3125 L 150.964844 92.710938 C 150.964844 92.515625 151.125 92.355469 151.324219 92.355469 L 176.171875 92.355469 C 178.0625 92.355469 180.097656 91.265625 180.296875 89.472656 C 180.367188 88.820312 180.640625 87.882812 180.074219 87.882812 L 116.472656 87.882812 C 116.261719 87.882812 116.097656 88.0625 116.117188 88.273438 C 116.238281 89.578125 116.261719 90.503906 117.429688 91.410156 C 118.191406 92 119.222656 92.355469 120.375 92.355469 L 145.226562 92.355469 C 145.421875 92.355469 145.585938 92.515625 145.585938 92.714844 L 145.585938 168.3125 C 145.585938 168.511719 145.421875 168.671875 145.226562 168.671875 L 127.65625 168.671875 C 127.457031 168.671875 127.296875 168.511719 127.296875 168.3125 L 127.296875 124.648438 C 127.296875 124.550781 127.257812 124.460938 127.1875 124.394531 L 103.113281 100.875 C 102.976562 100.738281 102.753906 100.738281 102.613281 100.875 L 78.539062 124.394531 C 78.46875 124.460938 78.429688 124.546875 78.429688 124.648438 L 78.429688 168.3125 C 78.429688 168.511719 78.269531 168.671875 78.074219 168.671875 L 73.410156 168.671875 C 73.210938 168.671875 73.050781 168.511719 73.050781 168.3125 L 73.050781 123.375 C 73.050781 122.445312 73.4375 121.875 74.015625 121.308594 L 91.71875 104.015625 C 91.792969 103.945312 91.828125 103.859375 91.828125 103.757812 L 91.828125 37.867188 C 91.828125 35.890625 90.203125 34.269531 88.230469 34.269531 L 23.613281 34.269531 C 21.640625 34.269531 20.015625 35.890625 20.015625 37.867188 Z M 92.480469 168.3125 L 92.480469 152.558594 C 92.480469 149.195312 95.226562 146.449219 98.589844 146.449219 L 107.136719 146.449219 C 110.503906 146.449219 113.246094 149.195312 113.246094 152.558594 L 113.246094 168.3125 C 113.246094 168.511719 113.085938 168.671875 112.886719 168.671875 L 92.839844 168.671875 C 92.640625 168.671875 92.480469 168.511719 92.480469 168.3125 Z M 64.714844 106.6875 C 63.894531 106.6875 63.222656 106.015625 63.222656 105.195312 L 63.222656 95.65625 C 63.222656 94.839844 63.894531 94.167969 64.714844 94.167969 L 74.25 94.167969 C 75.070312 94.167969 75.742188 94.839844 75.742188 95.65625 L 75.742188 105.195312 C 75.742188 106.015625 75.070312 106.6875 74.25 106.6875 Z M 48.617188 95.65625 L 48.617188 105.195312 C 48.617188 106.015625 47.949219 106.6875 47.128906 106.6875 L 37.589844 106.6875 C 36.769531 106.6875 36.101562 106.015625 36.101562 105.195312 L 36.101562 95.65625 C 36.101562 94.839844 36.769531 94.167969 37.589844 94.167969 L 47.128906 94.167969 C 47.949219 94.167969 48.617188 94.839844 48.617188 95.65625 Z M 74.25 83.738281 L 64.714844 83.738281 C 63.894531 83.738281 63.222656 83.066406 63.222656 82.246094 L 63.222656 72.707031 C 63.222656 71.886719 63.894531 71.21875 64.714844 71.21875 L 74.25 71.21875 C 75.070312 71.21875 75.742188 71.890625 75.742188 72.707031 L 75.742188 82.246094 C 75.742188 83.066406 75.070312 83.738281 74.25 83.738281 Z M 47.128906 83.738281 L 37.589844 83.738281 C 36.769531 83.738281 36.101562 83.066406 36.101562 82.246094 L 36.101562 72.707031 C 36.101562 71.886719 36.769531 71.21875 37.589844 71.21875 L 47.128906 71.21875 C 47.949219 71.21875 48.617188 71.890625 48.617188 72.707031 L 48.617188 82.246094 C 48.617188 83.066406 47.949219 83.738281 47.128906 83.738281 Z M 74.25 60.785156 L 64.714844 60.785156 C 63.894531 60.785156 63.222656 60.117188 63.222656 59.296875 L 63.222656 49.757812 C 63.222656 48.9375 63.894531 48.269531 64.714844 48.269531 L 74.25 48.269531 C 75.070312 48.269531 75.742188 48.941406 75.742188 49.757812 L 75.742188 59.296875 C 75.742188 60.117188 75.070312 60.785156 74.25 60.785156 Z M 47.128906 60.785156 L 37.589844 60.785156 C 36.769531 60.785156 36.101562 60.117188 36.101562 59.296875 L 36.101562 49.757812 C 36.101562 48.9375 36.769531 48.269531 37.589844 48.269531 L 47.128906 48.269531 C 47.949219 48.269531 48.617188 48.941406 48.617188 49.757812 L 48.617188 59.296875 C 48.617188 60.117188 47.949219 60.785156 47.128906 60.785156 Z M 47.128906 60.785156 " fill-opacity="1" fill-rule="evenodd"/></g></svg>