<svg xmlns="http://www.w3.org/2000/svg" xmlns:xlink="http://www.w3.org/1999/xlink" width="250" zoomAndPan="magnify" viewBox="0 0 187.5 187.499992" height="250" preserveAspectRatio="xMidYMid meet" version="1.0"><defs><filter x="0%" y="0%" width="100%" height="100%" id="befb2cf709"><feColorMatrix values="0 0 0 0 1 0 0 0 0 1 0 0 0 0 1 0 0 0 1 0" color-interpolation-filters="sRGB"/></filter><mask id="3ddfd009c8"><g filter="url(#befb2cf709)"><rect x="-18.75" width="225" fill="#000000" y="-18.749999" height="224.99999" fill-opacity="0.2"/></g></mask><clipPath id="39a995b718"><path d="M 1 1.359375 L 184 1.359375 L 184 150.960938 L 1 150.960938 Z M 1 1.359375 " clip-rule="nonzero"/></clipPath><clipPath id="0a3afecde8"><rect x="0" width="185" y="0" height="152"/></clipPath><clipPath id="5e524e48e5"><path d="M 14.957031 4.820312 L 168.296875 4.820312 L 168.296875 182 L 14.957031 182 Z M 14.957031 4.820312 " clip-rule="nonzero"/></clipPath></defs><g mask="url(#3ddfd009c8)"><g transform="matrix(1, 0, 0, 1, 1, 17)"><g clip-path="url(#0a3afecde8)"><g clip-path="url(#39a995b718)"><path fill="#3b7bbe" d="M 54.054688 1.46875 C 58.808594 1.359375 66.925781 3.554688 74.785156 6.882812 C 76.46875 7.574219 78.148438 8.234375 79.757812 9.039062 C 86.449219 12.4375 93.359375 12.402344 100.417969 10.539062 C 104.253906 9.511719 107.984375 8.085938 111.859375 7.246094 C 116.46875 6.257812 121.074219 5.96875 125.679688 7.320312 C 132.261719 9.292969 137.308594 13.390625 140.925781 19.09375 C 146.996094 28.5625 149.042969 38.910156 147.835938 50.058594 C 147.179688 55.910156 145.972656 61.652344 145.425781 67.5 C 144.730469 74.996094 147.324219 80.992188 152.917969 85.890625 C 157.304688 89.695312 162.207031 92.800781 166.886719 96.203125 C 171.089844 99.273438 175.113281 102.527344 178.183594 106.804688 C 184.472656 115.617188 185.898438 124.976562 180.707031 134.8125 C 178.074219 139.820312 173.832031 143.183594 168.75 145.488281 C 162.5 148.339844 155.878906 149.144531 149.042969 148.851562 C 135.039062 148.265625 122.71875 143.148438 111.164062 135.578125 C 108.128906 133.605469 105.023438 131.703125 101.734375 130.167969 C 92.117188 125.632812 82.828125 126.402344 73.871094 131.957031 C 69.8125 134.480469 66.265625 137.625 62.613281 140.660156 C 58.808594 143.839844 54.933594 146.839844 50.398438 148.851562 C 46.597656 150.53125 42.648438 151.300781 38.554688 150.386719 C 33.253906 149.253906 29.414062 146.109375 26.925781 141.28125 C 23.855469 135.285156 23.378906 128.886719 24.148438 122.34375 C 24.878906 115.945312 26.78125 109.839844 28.863281 103.804688 C 30.730469 98.433594 32.628906 93.019531 33.472656 87.355469 C 33.984375 83.988281 34.054688 80.625 33.542969 77.261719 C 32.703125 71.816406 29.851562 67.464844 25.574219 64.0625 C 22.796875 61.832031 19.796875 60.003906 16.761719 58.105469 C 13.910156 56.3125 11.097656 54.449219 8.609375 52.144531 C 0.929688 44.976562 -0.898438 36.386719 3.34375 26.734375 C 7.257812 17.847656 13.984375 11.742188 22.648438 7.683594 C 31.351562 3.589844 40.601562 1.617188 54.054688 1.46875 Z M 54.054688 1.46875 " fill-opacity="1" fill-rule="nonzero"/></g></g></g></g><g clip-path="url(#5e524e48e5)"><path fill="#ee3e95" d="M 166.398438 4.828125 L 16.851562 4.828125 C 15.804688 4.828125 14.957031 5.679688 14.957031 6.726562 L 14.957031 179.9375 C 14.957031 180.984375 15.804688 181.832031 16.851562 181.832031 L 166.398438 181.832031 C 167.445312 181.832031 168.292969 180.984375 168.292969 179.9375 L 168.292969 6.726562 C 168.292969 5.679688 167.445312 4.828125 166.398438 4.828125 Z M 164.5 178.039062 L 18.75 178.039062 L 18.75 8.621094 L 164.5 8.621094 Z M 164.5 178.039062 " fill-opacity="1" fill-rule="nonzero"/></g><path fill="#ee3e95" d="M 133.734375 36.484375 C 133.734375 35.4375 132.886719 34.589844 131.839844 34.589844 C 130.792969 34.589844 129.941406 35.4375 129.941406 36.484375 C 129.941406 49.003906 119.148438 59.1875 105.882812 59.1875 C 104.832031 59.1875 103.984375 60.035156 103.984375 61.082031 C 103.984375 62.128906 104.832031 62.980469 105.882812 62.980469 C 119.148438 62.980469 129.941406 73.160156 129.941406 85.671875 C 129.941406 86.71875 130.792969 87.570312 131.839844 87.570312 C 132.886719 87.570312 133.734375 86.71875 133.734375 85.671875 C 133.734375 73.160156 144.53125 62.980469 157.804688 62.980469 C 158.851562 62.980469 159.703125 62.128906 159.703125 61.082031 C 159.703125 60.035156 158.851562 59.1875 157.804688 59.1875 C 144.53125 59.1875 133.734375 49.003906 133.734375 36.484375 Z M 131.839844 76.0625 C 129.042969 69.253906 123.363281 63.804688 116.234375 61.082031 C 123.363281 58.359375 129.042969 52.910156 131.839844 46.097656 C 134.636719 52.910156 140.320312 58.359375 147.449219 61.082031 C 140.320312 63.804688 134.636719 69.253906 131.839844 76.0625 Z M 131.839844 76.0625 " fill-opacity="1" fill-rule="nonzero"/><path fill="#ee3e95" d="M 28.09375 134.765625 C 34.695312 134.765625 40.0625 139.808594 40.0625 146.003906 C 40.0625 147.054688 40.914062 147.902344 41.960938 147.902344 C 43.007812 147.902344 43.855469 147.054688 43.855469 146.003906 C 43.855469 139.808594 49.226562 134.765625 55.832031 134.765625 C 56.878906 134.765625 57.726562 133.917969 57.726562 132.871094 C 57.726562 131.820312 56.878906 130.972656 55.832031 130.972656 C 49.226562 130.972656 43.855469 125.929688 43.855469 119.730469 C 43.855469 118.683594 43.007812 117.832031 41.960938 117.832031 C 40.914062 117.832031 40.0625 118.683594 40.0625 119.730469 C 40.0625 125.929688 34.695312 130.972656 28.09375 130.972656 C 27.046875 130.972656 26.195312 131.820312 26.195312 132.871094 C 26.195312 133.917969 27.046875 134.765625 28.09375 134.765625 Z M 41.960938 126.875 C 43.390625 129.390625 45.550781 131.476562 48.171875 132.871094 C 45.550781 134.261719 43.390625 136.347656 41.960938 138.863281 C 40.53125 136.347656 38.371094 134.261719 35.753906 132.871094 C 38.371094 131.476562 40.53125 129.390625 41.960938 126.875 Z M 41.960938 126.875 " fill-opacity="1" fill-rule="nonzero"/><path fill="#ee3e95" d="M 77.917969 34.402344 L 52.472656 58.503906 C 51.710938 59.226562 51.679688 60.425781 52.398438 61.1875 C 52.773438 61.582031 53.273438 61.777344 53.777344 61.777344 C 54.246094 61.777344 54.714844 61.605469 55.082031 61.257812 L 80.527344 37.15625 C 81.285156 36.4375 81.320312 35.234375 80.597656 34.476562 C 79.878906 33.714844 78.675781 33.683594 77.917969 34.402344 Z M 77.917969 34.402344 " fill-opacity="1" fill-rule="nonzero"/><path fill="#ee3e95" d="M 72.894531 62.984375 L 53.625 81.238281 C 52.863281 81.960938 52.832031 83.160156 53.550781 83.921875 C 53.925781 84.3125 54.425781 84.511719 54.929688 84.511719 C 55.398438 84.511719 55.867188 84.339844 56.234375 83.992188 L 75.503906 65.738281 C 76.261719 65.019531 76.296875 63.816406 75.574219 63.058594 C 74.855469 62.296875 73.652344 62.265625 72.894531 62.984375 Z M 72.894531 62.984375 " fill-opacity="1" fill-rule="nonzero"/><path fill="#ee3e95" d="M 107.707031 125.941406 C 108.175781 125.941406 108.644531 125.769531 109.011719 125.421875 L 127.761719 107.660156 C 128.523438 106.9375 128.554688 105.738281 127.835938 104.976562 C 127.113281 104.21875 125.914062 104.183594 125.152344 104.90625 L 106.402344 122.667969 C 105.640625 123.386719 105.609375 124.589844 106.328125 125.351562 C 106.703125 125.742188 107.203125 125.941406 107.707031 125.941406 Z M 107.707031 125.941406 " fill-opacity="1" fill-rule="nonzero"/><path fill="#ee3e95" d="M 138.539062 113.785156 L 104.105469 146.402344 C 103.347656 147.125 103.3125 148.324219 104.035156 149.085938 C 104.40625 149.476562 104.910156 149.675781 105.410156 149.675781 C 105.878906 149.675781 106.347656 149.503906 106.714844 149.15625 L 141.148438 116.539062 C 141.90625 115.820312 141.941406 114.621094 141.21875 113.859375 C 140.5 113.097656 139.296875 113.066406 138.539062 113.785156 Z M 138.539062 113.785156 " fill-opacity="1" fill-rule="nonzero"/><path fill="#ee3e95" d="M 61.96875 144.300781 C 60.921875 144.300781 60.070312 145.148438 60.070312 146.199219 L 60.070312 150.175781 L 55.832031 150.175781 C 54.785156 150.175781 53.933594 151.027344 53.933594 152.074219 C 53.933594 153.121094 54.785156 153.96875 55.832031 153.96875 L 60.070312 153.96875 L 60.070312 157.949219 C 60.070312 158.996094 60.921875 159.84375 61.96875 159.84375 C 63.015625 159.84375 63.867188 158.996094 63.867188 157.949219 L 63.867188 153.96875 L 68.105469 153.96875 C 69.152344 153.96875 70.003906 153.121094 70.003906 152.074219 C 70.003906 151.027344 69.152344 150.175781 68.105469 150.175781 L 63.867188 150.175781 L 63.867188 146.199219 C 63.867188 145.148438 63.015625 144.300781 61.96875 144.300781 Z M 61.96875 144.300781 " fill-opacity="1" fill-rule="nonzero"/><path fill="#ee3e95" d="M 97.15625 170.871094 L 154.859375 170.871094 C 155.90625 170.871094 156.753906 170.023438 156.753906 168.976562 L 156.753906 98.65625 C 156.753906 97.609375 155.90625 96.757812 154.859375 96.757812 L 97.15625 96.757812 C 96.109375 96.757812 95.261719 97.609375 95.261719 98.65625 L 95.261719 168.976562 C 95.261719 170.023438 96.109375 170.871094 97.15625 170.871094 Z M 99.054688 100.550781 L 152.960938 100.550781 L 152.960938 167.078125 L 99.054688 167.078125 Z M 99.054688 100.550781 " fill-opacity="1" fill-rule="nonzero"/><path fill="#ee3e95" d="M 28.390625 126.050781 C 29.4375 126.050781 30.289062 125.203125 30.289062 124.15625 L 30.289062 100.550781 L 84.019531 100.550781 L 84.019531 167.078125 L 30.289062 167.078125 L 30.289062 141.207031 C 30.289062 140.160156 29.4375 139.308594 28.390625 139.308594 C 27.34375 139.308594 26.496094 140.160156 26.496094 141.207031 L 26.496094 168.976562 C 26.496094 170.023438 27.34375 170.871094 28.390625 170.871094 L 85.917969 170.871094 C 86.964844 170.871094 87.8125 170.023438 87.8125 168.976562 L 87.8125 98.65625 C 87.8125 97.609375 86.964844 96.757812 85.917969 96.757812 L 28.390625 96.757812 C 27.34375 96.757812 26.496094 97.609375 26.496094 98.65625 L 26.496094 124.15625 C 26.496094 125.203125 27.34375 126.050781 28.390625 126.050781 Z M 28.390625 126.050781 " fill-opacity="1" fill-rule="nonzero"/><path fill="#ee3e95" d="M 97.164062 89.902344 L 124.550781 89.902344 C 125.597656 89.902344 126.445312 89.054688 126.445312 88.007812 C 126.445312 86.960938 125.597656 86.109375 124.550781 86.109375 L 99.054688 86.109375 L 99.054688 19.585938 L 152.960938 19.585938 L 152.960938 52.449219 C 152.960938 53.496094 153.8125 54.347656 154.859375 54.347656 C 155.90625 54.347656 156.753906 53.496094 156.753906 52.449219 L 156.753906 17.6875 C 156.753906 16.640625 155.90625 15.789062 154.859375 15.789062 L 97.15625 15.789062 C 97.054688 15.789062 96.96875 15.800781 96.894531 15.816406 C 95.972656 15.945312 95.261719 16.730469 95.261719 17.6875 L 95.261719 88.007812 C 95.261719 89.054688 96.117188 89.902344 97.164062 89.902344 Z M 97.164062 89.902344 " fill-opacity="1" fill-rule="nonzero"/><path fill="#ee3e95" d="M 154.859375 68.589844 C 153.8125 68.589844 152.960938 69.4375 152.960938 70.484375 L 152.960938 86.109375 L 139.164062 86.109375 C 138.117188 86.109375 137.269531 86.960938 137.269531 88.007812 C 137.269531 89.054688 138.117188 89.902344 139.164062 89.902344 L 154.640625 89.902344 C 154.710938 89.914062 154.785156 89.917969 154.859375 89.917969 C 155.90625 89.917969 156.753906 89.066406 156.753906 88.019531 L 156.753906 70.484375 C 156.753906 69.4375 155.90625 68.589844 154.859375 68.589844 Z M 154.859375 68.589844 " fill-opacity="1" fill-rule="nonzero"/><path fill="#ee3e95" d="M 28.390625 89.902344 L 85.917969 89.902344 C 86.964844 89.902344 87.8125 89.054688 87.8125 88.007812 L 87.8125 17.6875 C 87.8125 16.640625 86.964844 15.789062 85.917969 15.789062 C 85.789062 15.789062 85.660156 15.804688 85.539062 15.828125 C 85.417969 15.804688 85.292969 15.789062 85.164062 15.789062 L 28.390625 15.789062 C 27.34375 15.789062 26.496094 16.640625 26.496094 17.6875 L 26.496094 88.007812 C 26.496094 89.054688 27.34375 89.902344 28.390625 89.902344 Z M 30.289062 19.585938 L 84.019531 19.585938 L 84.019531 86.109375 L 30.289062 86.109375 Z M 30.289062 19.585938 " fill-opacity="1" fill-rule="nonzero"/></svg>