<svg xmlns="http://www.w3.org/2000/svg" xmlns:xlink="http://www.w3.org/1999/xlink" width="500" zoomAndPan="magnify" viewBox="0 0 375 225" height="300" preserveAspectRatio="xMidYMid meet" version="1.0"><path stroke-linecap="butt" transform="matrix(0.663967, -0.348781, 0.348781, 0.663967, 39.075405, 125.656572)" fill="none" stroke-linejoin="miter" d="M 0.000636507 2.000138 L 20.250426 2.0005 " stroke="#000000" stroke-width="4" stroke-opacity="1" stroke-miterlimit="4"/><path fill="#ffffff" d="M 47.238281 99.929688 C 64.53125 99.929688 79.855469 108.492188 89.226562 121.585938 L 89.226562 105.445312 C 89.226562 98.640625 83.65625 93.074219 76.851562 93.074219 L 69.25 93.074219 L 69.25 41.265625 C 69.25 40.105469 69.441406 39.429688 69.601562 39.089844 L 75.558594 39.089844 C 80.179688 39.089844 83.941406 35.078125 83.941406 30.140625 C 83.941406 25.207031 80.179688 21.191406 75.558594 21.191406 L 18.910156 21.191406 C 14.292969 21.191406 10.53125 25.207031 10.53125 30.140625 C 10.53125 35.078125 14.292969 39.089844 18.910156 39.089844 L 24.871094 39.089844 C 25.03125 39.429688 25.222656 40.109375 25.222656 41.265625 L 25.222656 93.070312 L 17.621094 93.070312 C 10.816406 93.070312 5.246094 98.640625 5.246094 105.445312 L 5.246094 121.585938 C 14.617188 108.492188 29.941406 99.929688 47.238281 99.929688 Z M 26.335938 34.21875 L 26.035156 34.144531 L 18.910156 34.144531 C 17.050781 34.144531 15.480469 32.308594 15.480469 30.140625 C 15.480469 27.972656 17.050781 26.140625 18.910156 26.140625 L 75.558594 26.140625 C 77.421875 26.140625 78.992188 27.972656 78.992188 30.140625 C 78.992188 32.3125 77.421875 34.144531 75.558594 34.144531 L 68.4375 34.144531 L 68.136719 34.21875 C 67.746094 34.316406 64.300781 35.359375 64.300781 41.265625 L 64.300781 93.070312 L 30.171875 93.070312 L 30.171875 41.265625 C 30.171875 35.359375 26.726562 34.316406 26.335938 34.21875 Z M 26.335938 34.21875 " fill-opacity="1" fill-rule="nonzero"/><path fill="#ffffff" d="M 47.238281 203.152344 C 29.941406 203.152344 14.617188 194.589844 5.25 181.496094 L 5.25 197.042969 C 5.25 200.59375 6.773438 203.800781 9.191406 206.0625 L 9.191406 216.835938 C 9.191406 219.558594 11.417969 221.785156 14.140625 221.785156 C 16.863281 221.785156 19.089844 219.558594 19.089844 216.835938 L 19.089844 209.414062 L 75.382812 209.414062 L 75.382812 216.835938 C 75.382812 219.558594 77.609375 221.785156 80.332031 221.785156 C 83.054688 221.785156 85.28125 219.558594 85.28125 216.835938 L 85.28125 206.0625 C 87.699219 203.800781 89.226562 200.59375 89.226562 197.042969 L 89.226562 183.503906 C 88.773438 183.4375 88.328125 183.367188 87.882812 183.289062 C 78.425781 195.367188 63.730469 203.152344 47.238281 203.152344 Z M 47.238281 203.152344 " fill-opacity="1" fill-rule="nonzero"/><path fill="#ffffff" d="M 47.238281 170.347656 C 36.851562 170.347656 28.429688 161.925781 28.429688 151.539062 C 28.429688 141.15625 36.851562 132.734375 47.238281 132.734375 C 57.625 132.734375 66.042969 141.15625 66.042969 151.539062 C 66.042969 154.796875 65.214844 157.859375 63.757812 160.53125 C 70.253906 165.667969 79.046875 170.890625 89.4375 172.757812 C 92.652344 166.375 94.472656 159.171875 94.472656 151.539062 C 94.472656 125.453125 73.324219 104.304688 47.238281 104.304688 C 21.148438 104.304688 0 125.453125 0 151.539062 C 0 177.628906 21.148438 198.777344 47.238281 198.777344 C 61.59375 198.777344 74.445312 192.363281 83.109375 182.253906 C 72.148438 179.375 62.992188 173.601562 56.199219 168.078125 C 53.535156 169.527344 50.480469 170.347656 47.238281 170.347656 Z M 47.238281 170.347656 " fill-opacity="1" fill-rule="nonzero"/><path fill="#ffffff" d="M 278.289062 158.292969 C 277.917969 159.515625 277.375 160.640625 276.699219 161.664062 C 277.910156 162.152344 279.164062 162.402344 280.40625 162.402344 C 284.132812 162.402344 287.703125 160.285156 289.382812 156.683594 C 289.761719 155.875 290.007812 155.039062 290.152344 154.195312 C 286.550781 153.648438 282.742188 153.234375 278.726562 152.960938 C 278.957031 154.726562 278.824219 156.535156 278.289062 158.292969 Z M 278.289062 158.292969 " fill-opacity="1" fill-rule="nonzero"/><path fill="#ffffff" d="M 267.53125 141.714844 L 268.574219 142.03125 C 273.585938 142.09375 278.359375 142.332031 282.902344 142.746094 L 266.933594 135.296875 C 266.933594 135.328125 266.941406 135.355469 266.945312 135.386719 Z M 267.53125 141.714844 " fill-opacity="1" fill-rule="nonzero"/><path fill="#ffffff" d="M 262.398438 166.789062 L 235.167969 158.539062 L 237.019531 178.597656 L 243.535156 182.53125 C 250.394531 186.667969 253.746094 194.683594 251.878906 202.472656 C 250.574219 207.925781 246.933594 212.308594 242.128906 214.652344 C 244.910156 218.9375 249.730469 221.714844 255.085938 221.714844 C 255.5625 221.714844 256.042969 221.695312 256.527344 221.648438 C 265.035156 220.863281 271.292969 213.332031 270.507812 204.828125 L 267.039062 167.304688 C 266.730469 167.324219 266.414062 167.339844 266.101562 167.339844 C 264.847656 167.339844 263.605469 167.15625 262.398438 166.789062 Z M 262.398438 166.789062 " fill-opacity="1" fill-rule="nonzero"/><path fill="#ffffff" d="M 225.660156 155.660156 C 218.640625 156.625 211.597656 157.777344 204.640625 159.054688 L 212.886719 164.03125 L 233.132812 157.921875 Z M 225.660156 155.660156 " fill-opacity="1" fill-rule="nonzero"/><path fill="#ffffff" d="M 264.589844 140.824219 L 264.113281 135.644531 C 263.683594 131.023438 261.203125 126.835938 257.351562 124.242188 C 253.503906 121.648438 248.691406 120.921875 244.246094 122.261719 L 223.75 128.449219 Z M 264.589844 140.824219 " fill-opacity="1" fill-rule="nonzero"/><path fill="#ffffff" d="M 151.46875 160.113281 C 164.328125 156.765625 178.894531 153.269531 194.09375 150.25 C 194.101562 150.199219 194.105469 150.144531 194.113281 150.09375 L 194.195312 150.230469 C 197.472656 149.582031 200.777344 148.953125 204.101562 148.355469 C 202.328125 147.046875 200.898438 145.292969 199.992188 143.226562 L 197.035156 136.507812 L 196.660156 136.621094 C 196.710938 136.414062 196.765625 136.214844 196.816406 136.007812 L 178.957031 95.386719 C 176.128906 88.957031 179.0625 81.421875 185.496094 78.59375 C 187.125 77.878906 188.847656 77.515625 190.617188 77.515625 C 195.675781 77.515625 200.253906 80.503906 202.289062 85.128906 L 220.464844 126.464844 L 237.175781 121.421875 L 232.550781 119.265625 L 208.242188 73.261719 C 207.261719 71.410156 205.777344 70 204.046875 69.101562 C 203.289062 68.589844 202.496094 68.121094 201.625 67.765625 C 191.550781 63.640625 175.574219 67.117188 166.804688 84.152344 C 164.878906 87.953125 163.175781 91.539062 161.636719 95.019531 C 153.660156 113.054688 150.632812 127.933594 149.976562 151.117188 C 150.140625 154.566406 150.664062 157.542969 151.46875 160.113281 Z M 151.46875 160.113281 " fill-opacity="1" fill-rule="nonzero"/><path fill="#ffffff" d="M 249.113281 201.808594 C 250.683594 195.261719 247.832031 188.445312 242.0625 184.964844 L 200.441406 159.84375 C 185.144531 162.773438 170.359375 166.246094 157.214844 169.621094 C 159.289062 171.589844 161.667969 173.035156 164.195312 174.09375 L 184.445312 186.316406 L 156.550781 188.347656 C 148.03125 188.96875 141.628906 196.378906 142.25 204.898438 C 142.84375 213.03125 149.628906 219.238281 157.660156 219.238281 C 158.035156 219.238281 158.417969 219.226562 158.800781 219.195312 L 235.199219 213.628906 C 241.914062 213.140625 247.542969 208.359375 249.113281 201.808594 Z M 249.113281 201.808594 " fill-opacity="1" fill-rule="nonzero"/><path fill="#ffffff" d="M 271.835938 56.460938 C 274.097656 52.117188 265.363281 43.097656 252.328125 36.316406 C 251.882812 36.085938 251.441406 35.875 250.996094 35.652344 C 248.832031 28.921875 244.117188 23.007812 237.347656 19.484375 C 223.710938 12.390625 206.902344 17.699219 199.804688 31.335938 C 192.710938 44.976562 198.015625 61.785156 211.65625 68.878906 C 224.167969 75.386719 239.335938 71.453125 247.238281 60.234375 C 245.070312 58.960938 242.84375 57.5 240.625 55.867188 C 229.003906 47.324219 221.832031 37.300781 224.320312 33.203125 C 224.015625 37.871094 232.289062 45.882812 244.148438 52.050781 C 253.097656 56.707031 261.746094 59.09375 267.019531 58.730469 C 269.425781 58.5625 271.128906 57.820312 271.835938 56.460938 Z M 271.835938 56.460938 " fill-opacity="1" fill-rule="nonzero"/><path fill="#ffffff" d="M 219.214844 153.703125 L 208.523438 150.464844 C 171.855469 156.789062 136.804688 166.914062 118.023438 172.34375 C 115.234375 173.148438 112.773438 173.863281 110.683594 174.453125 C 84.644531 181.820312 64.105469 165.742188 54.75 156.308594 C 55.628906 154.929688 56.144531 153.296875 56.144531 151.539062 C 56.144531 146.628906 52.148438 142.632812 47.238281 142.632812 C 42.324219 142.632812 38.328125 146.628906 38.328125 151.539062 C 38.328125 156.453125 42.324219 160.449219 47.238281 160.449219 C 48.601562 160.449219 49.886719 160.132812 51.046875 159.582031 C 61.09375 169.75 83.421875 187.296875 112.027344 179.214844 C 114.125 178.625 116.597656 177.910156 119.398438 177.097656 C 140.113281 171.109375 179.460938 159.742188 219.214844 153.703125 Z M 219.214844 153.703125 " fill-opacity="1" fill-rule="nonzero"/><path fill="#ffffff" d="M 268.964844 145.121094 L 218.882812 129.945312 L 199.683594 86.273438 C 197.484375 81.269531 191.644531 78.996094 186.640625 81.199219 C 181.636719 83.398438 179.363281 89.238281 181.5625 94.242188 L 202.59375 142.082031 C 203.757812 144.726562 206.019531 146.730469 208.785156 147.570312 L 263.222656 164.066406 C 264.179688 164.355469 265.144531 164.496094 266.097656 164.496094 C 270.34375 164.496094 274.269531 161.738281 275.566406 157.464844 C 277.152344 152.234375 274.195312 146.707031 268.964844 145.121094 Z M 268.964844 145.121094 " fill-opacity="1" fill-rule="nonzero"/><path fill="#ffffff" d="M 348.476562 208.886719 C 347.542969 208.851562 346.597656 208.824219 345.636719 208.8125 C 345.394531 198.945312 344.144531 186.003906 339.828125 176.53125 C 330.949219 157.03125 309.035156 146.496094 274.507812 145.03125 C 275.636719 146.027344 276.601562 147.21875 277.332031 148.585938 C 277.589844 149.070312 277.804688 149.566406 277.996094 150.070312 C 304.925781 151.75 326.714844 159.675781 335.324219 178.582031 C 339.261719 187.222656 340.421875 199.429688 340.664062 208.835938 C 339.695312 208.863281 338.746094 208.898438 337.808594 208.949219 C 323.433594 209.667969 312.578125 212.925781 312.578125 216.839844 C 312.578125 220.714844 323.226562 223.949219 337.402344 224.710938 C 339.472656 224.824219 341.621094 224.882812 343.820312 224.882812 C 345.257812 224.882812 346.675781 224.855469 348.0625 224.804688 C 363.308594 224.273438 375.058594 220.910156 375.058594 216.839844 C 375.058594 212.804688 363.519531 209.464844 348.476562 208.886719 Z M 348.476562 208.886719 " fill-opacity="1" fill-rule="nonzero"/></svg>